<?xml version="1.0" encoding="utf-8"?>
<!-- Generator: Adobe Illustrator 23.0.1, SVG Export Plug-In . SVG Version: 6.00 Build 0)  -->
<svg version="1.1" id="Layer_1" xmlns="http://www.w3.org/2000/svg" xmlns:xlink="http://www.w3.org/1999/xlink" x="0px" y="0px"
	 viewBox="0 0 64 64" style="enable-background:new 0 0 64 64;" xml:space="preserve">
<style type="text/css">
	.st0{fill:#FFFFFF;}
	.st1{fill:#2BAEFE;}
	.st2{fill:#33CCFF;}
	.st3{fill:#E0E4FF;}
	.st4{fill:#FA6E34;}
	.st5{fill:#FA8840;}
	.st6{fill:#FFB612;}
	.st7{fill:#FDCC32;}
	.st8{fill:#1C225C;}
</style>
<g>
	<g>
		<path class="st0" d="M62.5,32c0,0.5-0.01,1-0.04,1.5c-0.78,16.14-14.12,29-30.46,29c-16.34,0-29.68-12.86-30.46-29
			C1.51,33,1.5,32.5,1.5,32s0.01-1,0.04-1.5C2.32,14.36,15.66,1.5,32,1.5c16.34,0,29.68,12.86,30.46,29C62.49,31,62.5,31.5,62.5,32z
			"/>
	</g>
	<g>
		<path class="st6" d="M62.5,32c0,16.34-12.85,29.68-29,30.45c-0.14,0.02-0.29,0.02-0.44,0.03h-0.05c-0.17,0-0.34-0.01-0.51-0.02
			c-0.17-0.01-0.34-0.02-0.5-0.03c-0.17-0.01-0.34-0.03-0.5-0.04c-0.34-0.03-0.67-0.06-1-0.1C15.31,60.56,3.5,47.66,3.5,32
			c0-15.66,11.81-28.56,27-30.29c0.33-0.04,0.66-0.07,1-0.1c0.16-0.01,0.33-0.03,0.5-0.03c0.16-0.02,0.33-0.03,0.5-0.04
			c0.17-0.01,0.34-0.02,0.51-0.02h0.05c0.15,0.01,0.3,0.01,0.44,0.03C49.65,2.32,62.5,15.66,62.5,32z"/>
	</g>
	<g>
		<ellipse class="st7" cx="31.5" cy="32" rx="28" ry="30.39"/>
	</g>
	<g>
		<path class="st4" d="M56.5,32c0,8.96-4.81,16.8-12,21.07c-0.96,0.58-1.96,1.08-3,1.52c-2.92,1.23-6.13,1.91-9.5,1.91
			c-0.5,0-1.01-0.02-1.5-0.05c-4-0.24-7.74-1.44-11-3.38c-7.18-4.26-12-12.1-12-21.07c0-13.03,10.17-23.68,23-24.45
			c0.49-0.03,1-0.05,1.5-0.05C45.53,7.5,56.5,18.47,56.5,32z"/>
	</g>
	<g>
		<ellipse class="st5" cx="30.5" cy="32" rx="23" ry="24.45"/>
	</g>
	<g>
		<path class="st1" d="M39.5,25c0,4.14-3.36,7.5-7.5,7.5c-0.51,0-1.01-0.05-1.49-0.15c-0.01,0-0.01,0-0.02,0
			c-3.42-0.7-5.99-3.73-5.99-7.35s2.57-6.65,5.99-7.35c0.01,0,0.01,0,0.02,0c0.48-0.1,0.98-0.15,1.49-0.15
			C36.14,17.5,39.5,20.86,39.5,25z"/>
	</g>
	<g>
		<path class="st1" d="M44.5,36.5v16.57c-0.96,0.58-1.96,1.08-3,1.52c-2.92,1.23-6.13,1.91-9.5,1.91c-0.5,0-1.01-0.02-1.5-0.05
			c-4-0.24-7.74-1.44-11-3.38V36.5l5-2h15l2,0.8L44.5,36.5z"/>
	</g>
	<g>
		<path class="st2" d="M36.5,25c0,3.62-2.57,6.65-5.99,7.35c-0.01,0-0.01,0-0.02,0c-3.42-0.7-5.99-3.73-5.99-7.35
			s2.57-6.65,5.99-7.35c0.01,0,0.01,0,0.02,0C33.93,18.35,36.5,21.38,36.5,25z"/>
	</g>
	<g>
		<path class="st2" d="M41.5,35.3v19.29c-2.92,1.23-6.13,1.91-9.5,1.91c-0.5,0-1.01-0.02-1.5-0.05c-4-0.24-7.74-1.44-11-3.38V36.5
			l5-2h15L41.5,35.3z"/>
	</g>
	<g>
		<g>
			<path class="st8" d="M32,57C18.215,57,7,45.785,7,32S18.215,7,32,7s25,11.215,25,25S45.785,57,32,57z M32,8
				C18.767,8,8,18.767,8,32s10.767,24,24,24s24-10.767,24-24S45.233,8,32,8z"/>
		</g>
		<g>
			<path class="st8" d="M32,33c-4.411,0-8-3.589-8-8s3.589-8,8-8s8,3.589,8,8S36.411,33,32,33z M32,18c-3.86,0-7,3.14-7,7
				s3.14,7,7,7s7-3.14,7-7S35.86,18,32,18z"/>
		</g>
		<g>
			<path class="st8" d="M7.938,51.244c-0.149,0-0.296-0.066-0.395-0.192C3.263,45.564,1,38.976,1,32C1,14.907,14.907,1,32,1
				c6.669,0,13.023,2.085,18.375,6.031c0.222,0.164,0.27,0.477,0.105,0.699c-0.164,0.222-0.477,0.269-0.699,0.105
				C44.603,4.018,38.455,2,32,2C15.458,2,2,15.458,2,32c0,6.751,2.189,13.126,6.332,18.436c0.17,0.218,0.131,0.532-0.086,0.702
				C8.154,51.209,8.045,51.244,7.938,51.244z"/>
		</g>
		<g>
			<path class="st8" d="M11.16,54.77c-0.123,0-0.245-0.044-0.342-0.135c-0.506-0.474-1.002-0.971-1.475-1.477
				c-0.188-0.202-0.178-0.519,0.024-0.707c0.202-0.189,0.519-0.178,0.707,0.024c0.458,0.49,0.938,0.971,1.428,1.429
				c0.202,0.189,0.212,0.505,0.023,0.707C11.426,54.716,11.293,54.77,11.16,54.77z"/>
		</g>
		<g>
			<path class="st8" d="M32,63c-6.706,0-13.088-2.106-18.457-6.091c-0.222-0.165-0.268-0.478-0.104-0.699
				c0.165-0.221,0.478-0.268,0.699-0.104C19.334,59.962,25.511,62,32,62c16.542,0,30-13.458,30-30c0-6.771-2.201-13.16-6.365-18.479
				c-0.17-0.217-0.132-0.532,0.085-0.702c0.217-0.171,0.531-0.132,0.702,0.085C60.726,18.401,63,25.004,63,32
				C63,49.093,49.093,63,32,63z"/>
		</g>
		<g>
			<path class="st8" d="M54.299,11.691c-0.134,0-0.267-0.053-0.366-0.159c-0.468-0.502-0.962-0.996-1.469-1.469
				c-0.202-0.188-0.212-0.505-0.024-0.707c0.188-0.202,0.505-0.213,0.707-0.024c0.523,0.488,1.034,0.999,1.518,1.517
				c0.188,0.202,0.177,0.519-0.024,0.707C54.543,11.646,54.421,11.691,54.299,11.691z"/>
		</g>
		<g>
			<path class="st8" d="M44.5,53.576c-0.276,0-0.5-0.224-0.5-0.5V36.838L39.404,35H24.596L20,36.838v16.237
				c0,0.276-0.224,0.5-0.5,0.5s-0.5-0.224-0.5-0.5V36.5c0-0.205,0.125-0.388,0.314-0.464l5-2C24.374,34.012,24.437,34,24.5,34h15
				c0.063,0,0.126,0.012,0.186,0.036l5,2C44.875,36.112,45,36.295,45,36.5v16.576C45,53.352,44.776,53.576,44.5,53.576z"/>
		</g>
		<g>
			<path class="st8" d="M24.5,55.831c-0.276,0-0.5-0.224-0.5-0.5V41.5c0-0.276,0.224-0.5,0.5-0.5s0.5,0.224,0.5,0.5v13.831
				C25,55.607,24.776,55.831,24.5,55.831z"/>
		</g>
		<g>
			<path class="st8" d="M39.5,55.831c-0.276,0-0.5-0.224-0.5-0.5V41.5c0-0.276,0.224-0.5,0.5-0.5s0.5,0.224,0.5,0.5v13.831
				C40,55.607,39.776,55.831,39.5,55.831z"/>
		</g>
	</g>
</g>
</svg>
