<svg xmlns="http://www.w3.org/2000/svg" xmlns:xlink="http://www.w3.org/1999/xlink" width="500" zoomAndPan="magnify" viewBox="0 0 375 374.999991" height="500" preserveAspectRatio="xMidYMid meet" version="1.0"><defs><clipPath id="f6cc7bc4eb"><path d="M 201.824219 17.042969 L 280.320312 17.042969 L 280.320312 137.265625 L 201.824219 137.265625 Z M 201.824219 17.042969 " clip-rule="nonzero"/></clipPath><clipPath id="1a32486dc4"><path d="M 261.9375 137.136719 C 256.753906 127.671875 249.863281 119.523438 241.796875 112.945312 C 249.863281 119.523438 256.753906 127.671875 261.9375 137.136719 M 232.136719 62.746094 C 224.832031 49.964844 214.257812 39.789062 201.882812 32.925781 C 214.257812 39.789062 224.832031 49.964844 232.136719 62.746094 M 280.078125 34.980469 C 275.015625 24.03125 264.035156 17.289062 252.359375 17.289062 C 251.507812 17.289062 250.652344 17.324219 249.792969 17.398438 C 250.652344 17.324219 251.507812 17.289062 252.359375 17.289062 C 264.039062 17.289062 275.011719 24.03125 280.078125 34.980469 M 242.402344 18.964844 C 242.601562 18.898438 242.800781 18.828125 243 18.765625 C 242.800781 18.828125 242.601562 18.898438 242.402344 18.964844 " clip-rule="nonzero"/></clipPath><clipPath id="892a6f0825"><path d="M 261.9375 137.136719 C 256.753906 127.671875 249.863281 119.523438 241.796875 112.945312 C 249.863281 119.523438 256.753906 127.671875 261.9375 137.136719 M 232.136719 62.746094 C 224.832031 49.964844 214.257812 39.789062 201.882812 32.925781 C 214.257812 39.789062 224.832031 49.964844 232.136719 62.746094 M 280.078125 34.980469 C 275.015625 24.03125 264.035156 17.289062 252.359375 17.289062 C 251.507812 17.289062 250.652344 17.324219 249.792969 17.398438 C 250.652344 17.324219 251.507812 17.289062 252.359375 17.289062 C 264.039062 17.289062 275.011719 24.03125 280.078125 34.980469 M 242.402344 18.964844 C 242.601562 18.898438 242.800781 18.828125 243 18.765625 C 242.800781 18.828125 242.601562 18.898438 242.402344 18.964844 " clip-rule="nonzero"/></clipPath><clipPath id="63ea5c8cf1"><path d="M 317.046875 124.398438 L 271.765625 -6.792969 L 164.917969 30.027344 L 210.195312 161.21875 Z M 317.046875 124.398438 " clip-rule="nonzero"/></clipPath><linearGradient x1="-0.0766077" gradientTransform="matrix(-69.398474, 23.913073, -23.932399, -69.342436, 290.534758, 64.821168)" y1="0" x2="1.463062" gradientUnits="userSpaceOnUse" y2="0" id="7ec8af2108"><stop stop-opacity="1" stop-color="rgb(100%, 100%, 100%)" offset="0"/><stop stop-opacity="1" stop-color="rgb(100%, 100%, 100%)" offset="0.0625"/><stop stop-opacity="1" stop-color="rgb(99.906921%, 99.906921%, 99.906921%)" offset="0.0703125"/><stop stop-opacity="1" stop-color="rgb(99.708557%, 99.708557%, 99.708557%)" offset="0.078125"/><stop stop-opacity="1" stop-color="rgb(99.417114%, 99.417114%, 99.417114%)" offset="0.09375"/><stop stop-opacity="1" stop-color="rgb(99.214172%, 99.214172%, 99.214172%)" offset="0.125"/><stop stop-opacity="1" stop-color="rgb(99.01123%, 99.01123%, 99.01123%)" offset="0.132813"/><stop stop-opacity="1" stop-color="rgb(98.81134%, 98.81134%, 98.81134%)" offset="0.140625"/><stop stop-opacity="1" stop-color="rgb(98.799133%, 98.704529%, 98.799133%)" offset="0.148438"/><stop stop-opacity="1" stop-color="rgb(98.799133%, 98.504639%, 98.799133%)" offset="0.15625"/><stop stop-opacity="1" stop-color="rgb(98.605347%, 98.399353%, 98.605347%)" offset="0.164062"/><stop stop-opacity="1" stop-color="rgb(98.405457%, 98.399353%, 98.405457%)" offset="0.171875"/><stop stop-opacity="1" stop-color="rgb(98.208618%, 98.208618%, 98.208618%)" offset="0.1875"/><stop stop-opacity="1" stop-color="rgb(98.008728%, 98.008728%, 98.008728%)" offset="0.203125"/><stop stop-opacity="1" stop-color="rgb(97.805786%, 97.805786%, 97.805786%)" offset="0.21875"/><stop stop-opacity="1" stop-color="rgb(97.459412%, 97.459412%, 97.459412%)" offset="0.25"/><stop stop-opacity="1" stop-color="rgb(97.302246%, 97.302246%, 97.302246%)" offset="0.265625"/><stop stop-opacity="1" stop-color="rgb(97.203064%, 97.203064%, 97.203064%)" offset="0.273438"/><stop stop-opacity="1" stop-color="rgb(97.003174%, 97.003174%, 97.003174%)" offset="0.28125"/><stop stop-opacity="1" stop-color="rgb(96.708679%, 96.708679%, 96.708679%)" offset="0.296875"/><stop stop-opacity="1" stop-color="rgb(96.508789%, 96.508789%, 96.508789%)" offset="0.3125"/><stop stop-opacity="1" stop-color="rgb(96.499634%, 96.405029%, 96.405029%)" offset="0.320312"/><stop stop-opacity="1" stop-color="rgb(96.499634%, 96.206665%, 96.206665%)" offset="0.328125"/><stop stop-opacity="1" stop-color="rgb(96.307373%, 96.101379%, 96.101379%)" offset="0.335938"/><stop stop-opacity="1" stop-color="rgb(96.107483%, 96.099854%, 96.099854%)" offset="0.34375"/><stop stop-opacity="1" stop-color="rgb(96.002197%, 96.002197%, 96.002197%)" offset="0.351563"/><stop stop-opacity="1" stop-color="rgb(95.800781%, 95.800781%, 95.800781%)" offset="0.359375"/><stop stop-opacity="1" stop-color="rgb(95.698547%, 95.698547%, 95.698547%)" offset="0.375"/><stop stop-opacity="1" stop-color="rgb(95.506287%, 95.506287%, 95.506287%)" offset="0.390625"/><stop stop-opacity="1" stop-color="rgb(95.306396%, 95.306396%, 95.306396%)" offset="0.40625"/><stop stop-opacity="1" stop-color="rgb(95.103455%, 95.103455%, 95.103455%)" offset="0.421875"/><stop stop-opacity="1" stop-color="rgb(94.903564%, 94.903564%, 94.903564%)" offset="0.4375"/><stop stop-opacity="1" stop-color="rgb(94.804382%, 94.804382%, 94.804382%)" offset="0.445312"/><stop stop-opacity="1" stop-color="rgb(94.604492%, 94.604492%, 94.604492%)" offset="0.453125"/><stop stop-opacity="1" stop-color="rgb(94.309998%, 94.309998%, 94.309998%)" offset="0.46875"/><stop stop-opacity="1" stop-color="rgb(94.110107%, 94.110107%, 94.110107%)" offset="0.5"/><stop stop-opacity="1" stop-color="rgb(93.908691%, 93.908691%, 93.908691%)" offset="0.507812"/><stop stop-opacity="1" stop-color="rgb(93.708801%, 93.708801%, 93.708801%)" offset="0.515625"/><stop stop-opacity="1" stop-color="rgb(93.699646%, 93.60199%, 93.60199%)" offset="0.523438"/><stop stop-opacity="1" stop-color="rgb(93.696594%, 93.4021%, 93.4021%)" offset="0.53125"/><stop stop-opacity="1" stop-color="rgb(93.499756%, 93.299866%, 93.299866%)" offset="0.539062"/><stop stop-opacity="1" stop-color="rgb(93.301392%, 93.299866%, 93.299866%)" offset="0.546875"/><stop stop-opacity="1" stop-color="rgb(93.107605%, 93.107605%, 93.107605%)" offset="0.5625"/><stop stop-opacity="1" stop-color="rgb(92.906189%, 92.906189%, 92.906189%)" offset="0.578125"/><stop stop-opacity="1" stop-color="rgb(92.703247%, 92.703247%, 92.703247%)" offset="0.59375"/><stop stop-opacity="1" stop-color="rgb(92.355347%, 92.355347%, 92.355347%)" offset="0.625"/><stop stop-opacity="1" stop-color="rgb(92.199707%, 92.199707%, 92.199707%)" offset="0.640625"/><stop stop-opacity="1" stop-color="rgb(92.102051%, 92.102051%, 92.102051%)" offset="0.648438"/><stop stop-opacity="1" stop-color="rgb(91.902161%, 91.900635%, 91.902161%)" offset="0.65625"/><stop stop-opacity="1" stop-color="rgb(91.799927%, 91.601562%, 91.799927%)" offset="0.6875"/><stop stop-opacity="1" stop-color="rgb(91.700745%, 91.401672%, 91.700745%)" offset="0.71875"/><stop stop-opacity="1" stop-color="rgb(91.500854%, 91.398621%, 91.500854%)" offset="0.75"/><stop stop-opacity="1" stop-color="rgb(91.398621%, 91.398621%, 91.398621%)" offset="1"/></linearGradient><clipPath id="716180ce17"><path d="M 201.824219 17.042969 L 286.335938 17.042969 L 286.335938 137.265625 L 201.824219 137.265625 Z M 201.824219 17.042969 " clip-rule="nonzero"/></clipPath><clipPath id="ec56a3c679"><path d="M 261.9375 137.136719 C 256.753906 127.671875 249.863281 119.523438 241.796875 112.945312 C 243.496094 100.976562 242.453125 88.433594 238.238281 76.21875 C 236.597656 71.464844 234.542969 66.964844 232.136719 62.746094 C 224.832031 49.964844 214.257812 39.789062 201.882812 32.925781 L 242.402344 18.964844 C 242.601562 18.898438 242.800781 18.828125 243 18.765625 C 245.25 18.039062 247.53125 17.589844 249.792969 17.398438 C 250.652344 17.324219 251.507812 17.289062 252.359375 17.289062 C 264.035156 17.289062 275.015625 24.03125 280.078125 34.980469 C 280.511719 35.914062 280.902344 36.875 281.242188 37.871094 L 286.230469 52.328125 C 286.953125 91.765625 271.148438 122.59375 261.9375 137.136719 " clip-rule="nonzero"/></clipPath><clipPath id="6da97d9a4c"><path d="M 261.9375 137.136719 C 256.753906 127.671875 249.863281 119.523438 241.796875 112.945312 C 243.496094 100.976562 242.453125 88.433594 238.238281 76.21875 C 236.597656 71.464844 234.542969 66.964844 232.136719 62.746094 C 224.832031 49.964844 214.257812 39.789062 201.882812 32.925781 L 242.402344 18.964844 C 242.601562 18.898438 242.800781 18.828125 243 18.765625 C 245.25 18.039062 247.53125 17.589844 249.792969 17.398438 C 250.652344 17.324219 251.507812 17.289062 252.359375 17.289062 C 264.035156 17.289062 275.015625 24.03125 280.078125 34.980469 C 280.511719 35.914062 280.902344 36.875 281.242188 37.871094 L 286.230469 52.328125 C 286.953125 91.765625 271.148438 122.59375 261.9375 137.136719 " clip-rule="nonzero"/></clipPath><clipPath id="a2c494cd6c"><path d="M 268 122.382812 L 371.417969 122.382812 L 371.417969 226.863281 L 268 226.863281 Z M 268 122.382812 " clip-rule="nonzero"/></clipPath><clipPath id="b9e34bacfd"><path d="M 268.246094 226.660156 C 273.703125 217.699219 277.273438 207.964844 279 197.996094 C 277.273438 207.964844 273.703125 217.699219 268.246094 226.660156 M 363.9375 193.730469 C 374.984375 181.023438 373.640625 161.757812 360.941406 150.703125 C 373.640625 161.757812 374.984375 181.023438 363.9375 193.730469 M 309.191406 175.695312 C 322.507812 160.378906 328.863281 141.390625 328.542969 122.589844 C 328.863281 141.390625 322.507812 160.378906 309.191406 175.695312 " clip-rule="nonzero"/></clipPath><clipPath id="6b7ceae688"><path d="M 268.246094 226.660156 C 273.703125 217.699219 277.273438 207.964844 279 197.996094 C 277.273438 207.964844 273.703125 217.699219 268.246094 226.660156 M 363.933594 193.730469 C 374.984375 181.023438 373.636719 161.761719 360.9375 150.707031 C 373.636719 161.761719 374.984375 181.023438 363.933594 193.730469 M 309.191406 175.695312 C 322.507812 160.378906 328.863281 141.390625 328.539062 122.589844 C 328.863281 141.390625 322.507812 160.378906 309.191406 175.695312 " clip-rule="nonzero"/></clipPath><clipPath id="eb4f9f6a05"><path d="M 329.09375 279.460938 L 426.550781 167.335938 L 314.140625 69.789062 L 216.683594 181.917969 Z M 329.09375 279.460938 " clip-rule="nonzero"/></clipPath><linearGradient x1="-0.371313" gradientTransform="matrix(-55.4253, -48.095786, 48.134654, -55.380546, 345.223846, 215.262965)" y1="0" x2="1.620153" gradientUnits="userSpaceOnUse" y2="0" id="0ef1f9c1d9"><stop stop-opacity="1" stop-color="rgb(100%, 100%, 100%)" offset="0"/><stop stop-opacity="1" stop-color="rgb(100%, 100%, 100%)" offset="0.125"/><stop stop-opacity="1" stop-color="rgb(100%, 100%, 100%)" offset="0.1875"/><stop stop-opacity="1" stop-color="rgb(99.835205%, 99.835205%, 99.835205%)" offset="0.203125"/><stop stop-opacity="1" stop-color="rgb(99.635315%, 99.635315%, 99.635315%)" offset="0.21875"/><stop stop-opacity="1" stop-color="rgb(99.420166%, 99.420166%, 99.420166%)" offset="0.234375"/><stop stop-opacity="1" stop-color="rgb(99.081421%, 99.081421%, 99.081421%)" offset="0.25"/><stop stop-opacity="1" stop-color="rgb(98.858643%, 98.858643%, 98.858643%)" offset="0.265625"/><stop stop-opacity="1" stop-color="rgb(98.658752%, 98.658752%, 98.658752%)" offset="0.273438"/><stop stop-opacity="1" stop-color="rgb(98.458862%, 98.458862%, 98.458862%)" offset="0.28125"/><stop stop-opacity="1" stop-color="rgb(98.275757%, 98.275757%, 98.275757%)" offset="0.289062"/><stop stop-opacity="1" stop-color="rgb(98.075867%, 98.075867%, 98.075867%)" offset="0.296875"/><stop stop-opacity="1" stop-color="rgb(97.999573%, 97.839355%, 97.999573%)" offset="0.3125"/><stop stop-opacity="1" stop-color="rgb(97.883606%, 97.639465%, 97.883606%)" offset="0.320312"/><stop stop-opacity="1" stop-color="rgb(97.683716%, 97.599792%, 97.683716%)" offset="0.328125"/><stop stop-opacity="1" stop-color="rgb(97.4823%, 97.4823%, 97.4823%)" offset="0.34375"/><stop stop-opacity="1" stop-color="rgb(97.232056%, 97.232056%, 97.232056%)" offset="0.359375"/><stop stop-opacity="1" stop-color="rgb(96.916199%, 96.916199%, 96.916199%)" offset="0.375"/><stop stop-opacity="1" stop-color="rgb(96.615601%, 96.615601%, 96.615601%)" offset="0.382812"/><stop stop-opacity="1" stop-color="rgb(96.499634%, 96.406555%, 96.406555%)" offset="0.390625"/><stop stop-opacity="1" stop-color="rgb(96.360779%, 96.206665%, 96.206665%)" offset="0.40625"/><stop stop-opacity="1" stop-color="rgb(96.101379%, 96.040344%, 96.040344%)" offset="0.421875"/><stop stop-opacity="1" stop-color="rgb(95.838928%, 95.838928%, 95.838928%)" offset="0.4375"/><stop stop-opacity="1" stop-color="rgb(95.639038%, 95.639038%, 95.639038%)" offset="0.445312"/><stop stop-opacity="1" stop-color="rgb(95.439148%, 95.439148%, 95.439148%)" offset="0.453125"/><stop stop-opacity="1" stop-color="rgb(95.298767%, 95.256042%, 95.256042%)" offset="0.460937"/><stop stop-opacity="1" stop-color="rgb(95.259094%, 95.056152%, 95.056152%)" offset="0.46875"/><stop stop-opacity="1" stop-color="rgb(95.059204%, 94.812012%, 94.812012%)" offset="0.484375"/><stop stop-opacity="1" stop-color="rgb(94.699097%, 94.612122%, 94.612122%)" offset="0.488281"/><stop stop-opacity="1" stop-color="rgb(94.499207%, 94.499207%, 94.499207%)" offset="0.492187"/><stop stop-opacity="1" stop-color="rgb(94.499207%, 94.471741%, 94.499207%)" offset="0.5"/><stop stop-opacity="1" stop-color="rgb(94.386292%, 94.271851%, 94.386292%)" offset="0.515625"/><stop stop-opacity="1" stop-color="rgb(94.168091%, 94.07959%, 94.168091%)" offset="0.53125"/><stop stop-opacity="1" stop-color="rgb(93.8797%, 93.8797%, 93.8797%)" offset="0.546875"/><stop stop-opacity="1" stop-color="rgb(93.699646%, 93.699646%, 93.699646%)" offset="0.554688"/><stop stop-opacity="1" stop-color="rgb(93.687439%, 93.499756%, 93.499756%)" offset="0.558594"/><stop stop-opacity="1" stop-color="rgb(93.676758%, 93.299866%, 93.299866%)" offset="0.5625"/><stop stop-opacity="1" stop-color="rgb(93.487549%, 93.104553%, 93.104553%)" offset="0.578125"/><stop stop-opacity="1" stop-color="rgb(93.112183%, 92.903137%, 92.903137%)" offset="0.585938"/><stop stop-opacity="1" stop-color="rgb(92.912292%, 92.803955%, 92.89856%)" offset="0.59375"/><stop stop-opacity="1" stop-color="rgb(92.710876%, 92.604065%, 92.710876%)" offset="0.609375"/><stop stop-opacity="1" stop-color="rgb(92.446899%, 92.434692%, 92.446899%)" offset="0.625"/><stop stop-opacity="1" stop-color="rgb(92.285156%, 92.285156%, 92.285156%)" offset="0.640625"/><stop stop-opacity="1" stop-color="rgb(92.199707%, 92.027283%, 92.027283%)" offset="0.648438"/><stop stop-opacity="1" stop-color="rgb(92.036438%, 91.827393%, 91.827393%)" offset="0.65625"/><stop stop-opacity="1" stop-color="rgb(91.836548%, 91.644287%, 91.644287%)" offset="0.664062"/><stop stop-opacity="1" stop-color="rgb(91.726685%, 91.444397%, 91.444397%)" offset="0.671875"/><stop stop-opacity="1" stop-color="rgb(91.525269%, 91.398621%, 91.398621%)" offset="0.6875"/><stop stop-opacity="1" stop-color="rgb(91.398621%, 91.398621%, 91.398621%)" offset="0.75"/><stop stop-opacity="1" stop-color="rgb(91.398621%, 91.398621%, 91.398621%)" offset="1"/></linearGradient><clipPath id="94b7e6e99c"><path d="M 268 122.382812 L 371.417969 122.382812 L 371.417969 226.863281 L 268 226.863281 Z M 268 122.382812 " clip-rule="nonzero"/></clipPath><clipPath id="970b10d5fb"><path d="M 274.285156 226.78125 C 272.089844 226.78125 270.070312 226.734375 268.246094 226.660156 C 273.703125 217.699219 277.273438 207.964844 279 197.996094 C 279.050781 197.710938 279.097656 197.425781 279.144531 197.140625 C 290.367188 192.621094 300.71875 185.445312 309.191406 175.695312 C 322.507812 160.378906 328.863281 141.390625 328.542969 122.589844 L 360.902344 150.671875 C 360.917969 150.683594 360.929688 150.695312 360.941406 150.703125 C 373.640625 161.757812 374.984375 181.023438 363.9375 193.730469 L 353.902344 205.277344 C 323.664062 223.464844 292.789062 226.78125 274.285156 226.78125 " clip-rule="nonzero"/></clipPath><clipPath id="a9e55f7079"><path d="M 274.285156 226.78125 C 272.089844 226.78125 270.070312 226.734375 268.246094 226.660156 C 273.703125 217.699219 277.273438 207.964844 279 197.996094 C 279.050781 197.710938 279.097656 197.425781 279.144531 197.140625 C 290.367188 192.621094 300.71875 185.445312 309.191406 175.695312 C 322.507812 160.378906 328.863281 141.390625 328.539062 122.589844 L 360.902344 150.671875 C 360.917969 150.683594 360.929688 150.691406 360.9375 150.707031 C 373.636719 161.761719 374.984375 181.023438 363.933594 193.730469 L 353.902344 205.277344 C 323.664062 223.464844 292.789062 226.78125 274.285156 226.78125 " clip-rule="nonzero"/></clipPath><clipPath id="49f3b74006"><path d="M 193.800781 271.515625 L 314.410156 271.515625 L 314.410156 325.332031 L 193.800781 325.332031 Z M 193.800781 271.515625 " clip-rule="nonzero"/></clipPath><clipPath id="a14e718b00"><path d="M 304.171875 325.101562 C 304.972656 323.195312 305.589844 321.175781 306 319.0625 L 310.078125 298.046875 L 306 319.0625 C 305.589844 321.175781 304.972656 323.195312 304.171875 325.101562 M 268.589844 288.132812 C 268.582031 288.132812 268.570312 288.128906 268.558594 288.128906 C 268.570312 288.128906 268.582031 288.132812 268.589844 288.132812 M 268.53125 288.128906 C 267.234375 288.042969 265.9375 287.929688 264.632812 287.78125 C 265.933594 287.929688 267.238281 288.042969 268.53125 288.128906 M 309.667969 279.523438 C 311.191406 278.738281 312.6875 277.90625 314.15625 277.023438 C 312.6875 277.90625 311.191406 278.738281 309.667969 279.523438 M 195.691406 276.902344 C 195.125 276.902344 194.558594 276.898438 193.992188 276.886719 C 194.558594 276.898438 195.121094 276.902344 195.691406 276.902344 C 205.824219 276.902344 215.679688 275.027344 224.84375 271.554688 C 215.679688 275.027344 205.824219 276.902344 195.691406 276.902344 " clip-rule="nonzero"/></clipPath><clipPath id="0068a30783"><path d="M 304.171875 325.101562 C 304.972656 323.195312 305.589844 321.175781 306 319.0625 L 310.078125 298.046875 L 306 319.0625 C 305.589844 321.175781 304.972656 323.195312 304.171875 325.101562 M 268.589844 288.132812 C 268.582031 288.132812 268.570312 288.128906 268.558594 288.128906 C 268.570312 288.128906 268.582031 288.132812 268.589844 288.132812 M 268.53125 288.128906 C 267.234375 288.042969 265.9375 287.929688 264.632812 287.78125 C 265.933594 287.929688 267.238281 288.042969 268.53125 288.128906 M 309.667969 279.523438 C 311.191406 278.738281 312.6875 277.90625 314.15625 277.023438 C 312.6875 277.90625 311.191406 278.738281 309.667969 279.523438 M 195.691406 276.902344 C 195.125 276.902344 194.558594 276.898438 193.992188 276.886719 C 194.558594 276.898438 195.121094 276.902344 195.691406 276.902344 C 205.824219 276.902344 215.679688 275.027344 224.84375 271.554688 C 215.679688 275.027344 205.824219 276.902344 195.691406 276.902344 " clip-rule="nonzero"/></clipPath><clipPath id="d9793bb527"><path d="M 183.976562 323.160156 L 309.804688 347.539062 L 324.171875 273.492188 L 198.347656 249.117188 Z M 183.976562 323.160156 " clip-rule="nonzero"/></clipPath><linearGradient x1="0.0457317" gradientTransform="matrix(13.973173, -72.008848, 72.067045, 13.96189, 242.124909, 337.843103)" y1="0" x2="1.074009" gradientUnits="userSpaceOnUse" y2="0" id="2ee14c63c1"><stop stop-opacity="1" stop-color="rgb(99.598694%, 99.598694%, 99.598694%)" offset="0"/><stop stop-opacity="1" stop-color="rgb(99.594116%, 99.594116%, 99.594116%)" offset="0.015625"/><stop stop-opacity="1" stop-color="rgb(99.394226%, 99.394226%, 99.394226%)" offset="0.03125"/><stop stop-opacity="1" stop-color="rgb(99.195862%, 99.195862%, 99.195862%)" offset="0.0625"/><stop stop-opacity="1" stop-color="rgb(99.08905%, 99.08905%, 99.08905%)" offset="0.0703125"/><stop stop-opacity="1" stop-color="rgb(98.892212%, 98.892212%, 98.892212%)" offset="0.078125"/><stop stop-opacity="1" stop-color="rgb(98.796082%, 98.796082%, 98.796082%)" offset="0.09375"/><stop stop-opacity="1" stop-color="rgb(98.692322%, 98.692322%, 98.692322%)" offset="0.109375"/><stop stop-opacity="1" stop-color="rgb(98.495483%, 98.495483%, 98.495483%)" offset="0.125"/><stop stop-opacity="1" stop-color="rgb(98.39325%, 98.39325%, 98.39325%)" offset="0.15625"/><stop stop-opacity="1" stop-color="rgb(98.193359%, 98.193359%, 98.193359%)" offset="0.1875"/><stop stop-opacity="1" stop-color="rgb(97.987366%, 97.987366%, 97.987366%)" offset="0.203125"/><stop stop-opacity="1" stop-color="rgb(97.787476%, 97.787476%, 97.787476%)" offset="0.21875"/><stop stop-opacity="1" stop-color="rgb(97.44873%, 97.44873%, 97.44873%)" offset="0.25"/><stop stop-opacity="1" stop-color="rgb(97.285461%, 97.285461%, 97.285461%)" offset="0.28125"/><stop stop-opacity="1" stop-color="rgb(97.085571%, 97.08252%, 97.08252%)" offset="0.3125"/><stop stop-opacity="1" stop-color="rgb(96.899414%, 96.786499%, 96.786499%)" offset="0.320312"/><stop stop-opacity="1" stop-color="rgb(96.887207%, 96.591187%, 96.591187%)" offset="0.328125"/><stop stop-opacity="1" stop-color="rgb(96.687317%, 96.495056%, 96.499634%)" offset="0.34375"/><stop stop-opacity="1" stop-color="rgb(96.499634%, 96.391296%, 96.499634%)" offset="0.359375"/><stop stop-opacity="1" stop-color="rgb(96.488953%, 96.194458%, 96.488953%)" offset="0.375"/><stop stop-opacity="1" stop-color="rgb(96.289062%, 96.099854%, 96.289062%)" offset="0.390625"/><stop stop-opacity="1" stop-color="rgb(96.086121%, 96.086121%, 96.086121%)" offset="0.40625"/><stop stop-opacity="1" stop-color="rgb(95.883179%, 95.883179%, 95.883179%)" offset="0.4375"/><stop stop-opacity="1" stop-color="rgb(95.593262%, 95.593262%, 95.593262%)" offset="0.453125"/><stop stop-opacity="1" stop-color="rgb(95.394897%, 95.394897%, 95.394897%)" offset="0.46875"/><stop stop-opacity="1" stop-color="rgb(95.283508%, 95.283508%, 95.283508%)" offset="0.484375"/><stop stop-opacity="1" stop-color="rgb(95.083618%, 95.083618%, 95.083618%)" offset="0.5"/><stop stop-opacity="1" stop-color="rgb(94.898987%, 94.885254%, 94.885254%)" offset="0.53125"/><stop stop-opacity="1" stop-color="rgb(94.889832%, 94.685364%, 94.685364%)" offset="0.546875"/><stop stop-opacity="1" stop-color="rgb(94.689941%, 94.496155%, 94.499207%)" offset="0.5625"/><stop stop-opacity="1" stop-color="rgb(94.499207%, 94.393921%, 94.499207%)" offset="0.578125"/><stop stop-opacity="1" stop-color="rgb(94.490051%, 94.195557%, 94.490051%)" offset="0.59375"/><stop stop-opacity="1" stop-color="rgb(94.290161%, 94.099426%, 94.290161%)" offset="0.609375"/><stop stop-opacity="1" stop-color="rgb(94.087219%, 94.087219%, 94.087219%)" offset="0.625"/><stop stop-opacity="1" stop-color="rgb(93.887329%, 93.887329%, 93.887329%)" offset="0.640625"/><stop stop-opacity="1" stop-color="rgb(93.692017%, 93.692017%, 93.692017%)" offset="0.65625"/><stop stop-opacity="1" stop-color="rgb(93.492126%, 93.492126%, 93.492126%)" offset="0.6875"/><stop stop-opacity="1" stop-color="rgb(93.299866%, 93.286133%, 93.286133%)" offset="0.703125"/><stop stop-opacity="1" stop-color="rgb(93.295288%, 93.086243%, 93.086243%)" offset="0.71875"/><stop stop-opacity="1" stop-color="rgb(93.190002%, 92.89856%, 92.89856%)" offset="0.734375"/><stop stop-opacity="1" stop-color="rgb(92.993164%, 92.886353%, 92.886353%)" offset="0.75"/><stop stop-opacity="1" stop-color="rgb(92.89093%, 92.686462%, 92.686462%)" offset="0.765625"/><stop stop-opacity="1" stop-color="rgb(92.69104%, 92.488098%, 92.488098%)" offset="0.78125"/><stop stop-opacity="1" stop-color="rgb(92.349243%, 92.33551%, 92.338562%)" offset="0.8125"/><stop stop-opacity="1" stop-color="rgb(92.199707%, 92.092896%, 92.199707%)" offset="0.828125"/><stop stop-opacity="1" stop-color="rgb(92.190552%, 91.896057%, 92.190552%)" offset="0.84375"/><stop stop-opacity="1" stop-color="rgb(91.990662%, 91.798401%, 91.989136%)" offset="0.875"/><stop stop-opacity="1" stop-color="rgb(91.799927%, 91.696167%, 91.696167%)" offset="0.9375"/><stop stop-opacity="1" stop-color="rgb(91.799927%, 91.496277%, 91.496277%)" offset="1"/></linearGradient><clipPath id="b6453b0e68"><path d="M 193.800781 271.515625 L 314.410156 271.515625 L 314.410156 343.9375 L 193.800781 343.9375 Z M 193.800781 271.515625 " clip-rule="nonzero"/></clipPath><clipPath id="483455df90"><path d="M 276.039062 343.785156 C 274.109375 343.785156 272.15625 343.601562 270.195312 343.222656 L 255.167969 340.308594 C 220.628906 321.214844 201.808594 292.125 193.808594 276.882812 C 193.871094 276.882812 193.929688 276.886719 193.992188 276.886719 C 194.558594 276.898438 195.125 276.902344 195.691406 276.902344 C 205.824219 276.902344 215.679688 275.027344 224.84375 271.554688 C 234.375 279.003906 245.765625 284.375 258.457031 286.832031 C 260.519531 287.230469 262.578125 287.550781 264.632812 287.78125 C 265.9375 287.929688 267.234375 288.042969 268.53125 288.128906 C 268.542969 288.128906 268.550781 288.128906 268.558594 288.128906 C 268.570312 288.128906 268.582031 288.132812 268.589844 288.132812 C 270.261719 288.238281 271.925781 288.289062 273.582031 288.289062 C 286.382812 288.289062 298.707031 285.167969 309.667969 279.523438 C 311.191406 278.738281 312.6875 277.90625 314.15625 277.023438 L 310.078125 298.046875 L 306 319.0625 C 305.589844 321.175781 304.972656 323.195312 304.171875 325.101562 C 299.4375 336.371094 288.300781 343.785156 276.039062 343.785156 " clip-rule="nonzero"/></clipPath><clipPath id="5b2295161a"><path d="M 276.039062 343.785156 C 274.109375 343.785156 272.15625 343.601562 270.195312 343.222656 L 255.167969 340.308594 C 220.628906 321.214844 201.808594 292.125 193.808594 276.882812 C 193.871094 276.882812 193.929688 276.886719 193.992188 276.886719 C 194.558594 276.898438 195.125 276.902344 195.691406 276.902344 C 205.824219 276.902344 215.679688 275.027344 224.84375 271.554688 C 234.375 279.003906 245.765625 284.375 258.457031 286.832031 C 260.519531 287.230469 262.578125 287.550781 264.632812 287.78125 C 265.9375 287.929688 267.234375 288.042969 268.53125 288.128906 C 268.542969 288.128906 268.550781 288.128906 268.558594 288.128906 C 268.570312 288.128906 268.582031 288.132812 268.589844 288.132812 C 270.261719 288.238281 271.925781 288.289062 273.582031 288.289062 C 286.382812 288.289062 298.707031 285.167969 309.667969 279.523438 C 311.191406 278.738281 312.6875 277.90625 314.15625 277.023438 L 310.078125 298.046875 L 306 319.0625 C 305.589844 321.175781 304.972656 323.195312 304.171875 325.101562 C 299.4375 336.371094 288.300781 343.785156 276.039062 343.785156 " clip-rule="nonzero"/></clipPath><clipPath id="25b1482ab4"><path d="M 95.539062 237.453125 L 172.316406 237.453125 L 172.316406 357.675781 L 95.539062 357.675781 Z M 95.539062 237.453125 " clip-rule="nonzero"/></clipPath><clipPath id="20798eab49"><path d="M 122.640625 357.429688 C 111.535156 357.429688 101.0625 351.328125 95.703125 341.3125 C 101.0625 351.328125 111.535156 357.425781 122.640625 357.429688 C 123.441406 357.429688 124.242188 357.398438 125.042969 357.332031 C 124.242188 357.398438 123.441406 357.429688 122.640625 357.429688 M 172.105469 341.222656 C 156.117188 332.050781 143.246094 317.28125 136.761719 298.496094 C 143.246094 317.28125 156.117188 332.050781 172.105469 341.222656 M 133.203125 261.773438 C 125.136719 255.195312 118.246094 247.046875 113.0625 237.582031 C 118.246094 247.046875 125.136719 255.195312 133.203125 261.773438 " clip-rule="nonzero"/></clipPath><clipPath id="fe139b54e1"><path d="M 122.640625 357.429688 C 111.535156 357.429688 101.0625 351.328125 95.703125 341.3125 C 101.0625 351.328125 111.535156 357.425781 122.640625 357.429688 C 123.441406 357.429688 124.242188 357.398438 125.042969 357.332031 C 124.242188 357.398438 123.441406 357.429688 122.640625 357.429688 M 172.105469 341.222656 C 156.117188 332.050781 143.246094 317.28125 136.761719 298.496094 C 143.246094 317.28125 156.117188 332.050781 172.105469 341.222656 M 133.203125 261.773438 C 125.136719 255.195312 118.246094 247.046875 113.0625 237.582031 C 118.246094 247.046875 125.136719 255.195312 133.203125 261.773438 " clip-rule="nonzero"/></clipPath><clipPath id="c1a9234751"><path d="M 58.738281 250.320312 L 103.824219 380.957031 L 209.074219 344.691406 L 163.988281 214.054688 Z M 58.738281 250.320312 " clip-rule="nonzero"/></clipPath><linearGradient x1="-0.0664809" gradientTransform="matrix(69.398474, -23.913073, 23.932399, 69.342436, 84.461573, 309.895655)" y1="0" x2="1.450116" gradientUnits="userSpaceOnUse" y2="0" id="9fe2c1d8c6"><stop stop-opacity="1" stop-color="rgb(100%, 100%, 100%)" offset="0"/><stop stop-opacity="1" stop-color="rgb(100%, 100%, 100%)" offset="0.0625"/><stop stop-opacity="1" stop-color="rgb(99.905396%, 99.905396%, 99.905396%)" offset="0.0703125"/><stop stop-opacity="1" stop-color="rgb(99.707031%, 99.707031%, 99.707031%)" offset="0.078125"/><stop stop-opacity="1" stop-color="rgb(99.60022%, 99.60022%, 99.60022%)" offset="0.09375"/><stop stop-opacity="1" stop-color="rgb(99.501038%, 99.501038%, 99.501038%)" offset="0.101562"/><stop stop-opacity="1" stop-color="rgb(99.301147%, 99.301147%, 99.301147%)" offset="0.109375"/><stop stop-opacity="1" stop-color="rgb(99.198914%, 99.198914%, 99.198914%)" offset="0.125"/><stop stop-opacity="1" stop-color="rgb(99.009705%, 99.009705%, 99.009705%)" offset="0.132812"/><stop stop-opacity="1" stop-color="rgb(98.809814%, 98.809814%, 98.809814%)" offset="0.140625"/><stop stop-opacity="1" stop-color="rgb(98.799133%, 98.703003%, 98.799133%)" offset="0.148438"/><stop stop-opacity="1" stop-color="rgb(98.799133%, 98.503113%, 98.799133%)" offset="0.15625"/><stop stop-opacity="1" stop-color="rgb(98.603821%, 98.399353%, 98.603821%)" offset="0.164062"/><stop stop-opacity="1" stop-color="rgb(98.403931%, 98.399353%, 98.403931%)" offset="0.171875"/><stop stop-opacity="1" stop-color="rgb(98.399353%, 98.213196%, 98.399353%)" offset="0.179687"/><stop stop-opacity="1" stop-color="rgb(98.217773%, 98.013306%, 98.217773%)" offset="0.1875"/><stop stop-opacity="1" stop-color="rgb(98.017883%, 97.999573%, 98.017883%)" offset="0.203125"/><stop stop-opacity="1" stop-color="rgb(97.810364%, 97.810364%, 97.810364%)" offset="0.21875"/><stop stop-opacity="1" stop-color="rgb(97.462463%, 97.462463%, 97.462463%)" offset="0.25"/><stop stop-opacity="1" stop-color="rgb(97.30072%, 97.30072%, 97.30072%)" offset="0.265625"/><stop stop-opacity="1" stop-color="rgb(97.203064%, 97.203064%, 97.203064%)" offset="0.273438"/><stop stop-opacity="1" stop-color="rgb(97.003174%, 97.003174%, 97.003174%)" offset="0.28125"/><stop stop-opacity="1" stop-color="rgb(96.899414%, 96.899414%, 96.899414%)" offset="0.296875"/><stop stop-opacity="1" stop-color="rgb(96.711731%, 96.711731%, 96.711731%)" offset="0.304687"/><stop stop-opacity="1" stop-color="rgb(96.511841%, 96.511841%, 96.511841%)" offset="0.3125"/><stop stop-opacity="1" stop-color="rgb(96.499634%, 96.403503%, 96.403503%)" offset="0.320312"/><stop stop-opacity="1" stop-color="rgb(96.499634%, 96.205139%, 96.205139%)" offset="0.328125"/><stop stop-opacity="1" stop-color="rgb(96.305847%, 96.099854%, 96.099854%)" offset="0.335938"/><stop stop-opacity="1" stop-color="rgb(96.105957%, 96.099854%, 96.099854%)" offset="0.34375"/><stop stop-opacity="1" stop-color="rgb(96.000671%, 96.000671%, 96.000671%)" offset="0.351562"/><stop stop-opacity="1" stop-color="rgb(95.800781%, 95.800781%, 95.800781%)" offset="0.359375"/><stop stop-opacity="1" stop-color="rgb(95.698547%, 95.698547%, 95.698547%)" offset="0.375"/><stop stop-opacity="1" stop-color="rgb(95.504761%, 95.504761%, 95.504761%)" offset="0.390625"/><stop stop-opacity="1" stop-color="rgb(95.304871%, 95.304871%, 95.304871%)" offset="0.40625"/><stop stop-opacity="1" stop-color="rgb(95.101929%, 95.101929%, 95.101929%)" offset="0.421875"/><stop stop-opacity="1" stop-color="rgb(94.902039%, 94.902039%, 94.902039%)" offset="0.4375"/><stop stop-opacity="1" stop-color="rgb(94.802856%, 94.802856%, 94.802856%)" offset="0.445312"/><stop stop-opacity="1" stop-color="rgb(94.602966%, 94.602966%, 94.602966%)" offset="0.453125"/><stop stop-opacity="1" stop-color="rgb(94.308472%, 94.308472%, 94.308472%)" offset="0.46875"/><stop stop-opacity="1" stop-color="rgb(94.108582%, 94.108582%, 94.108582%)" offset="0.5"/><stop stop-opacity="1" stop-color="rgb(93.907166%, 93.907166%, 93.907166%)" offset="0.507812"/><stop stop-opacity="1" stop-color="rgb(93.707275%, 93.707275%, 93.707275%)" offset="0.515625"/><stop stop-opacity="1" stop-color="rgb(93.699646%, 93.60199%, 93.60199%)" offset="0.523437"/><stop stop-opacity="1" stop-color="rgb(93.695068%, 93.4021%, 93.4021%)" offset="0.53125"/><stop stop-opacity="1" stop-color="rgb(93.496704%, 93.299866%, 93.299866%)" offset="0.539062"/><stop stop-opacity="1" stop-color="rgb(93.299866%, 93.299866%, 93.299866%)" offset="0.546875"/><stop stop-opacity="1" stop-color="rgb(93.106079%, 93.106079%, 93.106079%)" offset="0.5625"/><stop stop-opacity="1" stop-color="rgb(92.906189%, 92.906189%, 92.906189%)" offset="0.578125"/><stop stop-opacity="1" stop-color="rgb(92.89856%, 92.703247%, 92.703247%)" offset="0.59375"/><stop stop-opacity="1" stop-color="rgb(92.799377%, 92.503357%, 92.503357%)" offset="0.601562"/><stop stop-opacity="1" stop-color="rgb(92.596436%, 92.495728%, 92.495728%)" offset="0.609375"/><stop stop-opacity="1" stop-color="rgb(92.347717%, 92.347717%, 92.347717%)" offset="0.625"/><stop stop-opacity="1" stop-color="rgb(92.199707%, 92.199707%, 92.199707%)" offset="0.640625"/><stop stop-opacity="1" stop-color="rgb(92.199707%, 92.100525%, 92.100525%)" offset="0.648438"/><stop stop-opacity="1" stop-color="rgb(92.193604%, 91.900635%, 91.900635%)" offset="0.65625"/><stop stop-opacity="1" stop-color="rgb(91.993713%, 91.798401%, 91.798401%)" offset="0.664062"/><stop stop-opacity="1" stop-color="rgb(91.799927%, 91.603088%, 91.603088%)" offset="0.671875"/><stop stop-opacity="1" stop-color="rgb(91.60614%, 91.403198%, 91.403198%)" offset="0.6875"/><stop stop-opacity="1" stop-color="rgb(91.404724%, 91.398621%, 91.398621%)" offset="0.75"/><stop stop-opacity="1" stop-color="rgb(91.398621%, 91.398621%, 91.398621%)" offset="1"/></linearGradient><clipPath id="59a20299bc"><path d="M 88.664062 237.453125 L 173.175781 237.453125 L 173.175781 357.675781 L 88.664062 357.675781 Z M 88.664062 237.453125 " clip-rule="nonzero"/></clipPath><clipPath id="e131ca105c"><path d="M 122.640625 357.429688 C 111.535156 357.425781 101.0625 351.328125 95.703125 341.3125 C 94.949219 339.898438 94.296875 338.410156 93.757812 336.847656 L 88.769531 322.390625 C 88.046875 282.953125 103.851562 252.125 113.0625 237.582031 C 118.246094 247.046875 125.136719 255.195312 133.203125 261.773438 C 131.503906 273.742188 132.546875 286.285156 136.761719 298.496094 C 143.246094 317.28125 156.117188 332.050781 172.105469 341.222656 C 172.441406 341.414062 172.777344 341.605469 173.117188 341.792969 L 132.597656 355.753906 C 130.097656 356.613281 127.5625 357.132812 125.042969 357.332031 C 124.242188 357.398438 123.441406 357.429688 122.640625 357.429688 " clip-rule="nonzero"/></clipPath><clipPath id="a1fa7eb820"><path d="M 122.640625 357.429688 C 111.535156 357.425781 101.0625 351.328125 95.703125 341.3125 C 94.949219 339.898438 94.296875 338.410156 93.757812 336.847656 L 88.769531 322.390625 C 88.046875 282.953125 103.851562 252.125 113.0625 237.582031 C 118.246094 247.046875 125.136719 255.195312 133.203125 261.773438 C 131.503906 273.742188 132.546875 286.285156 136.761719 298.496094 C 143.246094 317.28125 156.117188 332.050781 172.105469 341.222656 C 172.441406 341.414062 172.777344 341.605469 173.117188 341.792969 L 132.597656 355.753906 C 130.097656 356.613281 127.5625 357.132812 125.042969 357.332031 C 124.242188 357.398438 123.441406 357.429688 122.640625 357.429688 " clip-rule="nonzero"/></clipPath><clipPath id="e8500baac7"><path d="M 3.582031 148 L 107 148 L 107 252.335938 L 3.582031 252.335938 Z M 3.582031 148 " clip-rule="nonzero"/></clipPath><clipPath id="814689e264"><path d="M 46.457031 252.128906 L 14.097656 224.046875 C 6.484375 217.445312 2.9375 207.898438 3.675781 198.570312 C 2.9375 207.898438 6.484375 217.445312 14.097656 224.046875 L 46.457031 252.128906 M 46.445312 251.082031 C 46.394531 237.328125 49.914062 223.507812 57.121094 211.140625 C 49.914062 223.507812 46.394531 237.328125 46.445312 251.082031 M 91.640625 179.421875 C 93.03125 178.761719 94.4375 178.148438 95.855469 177.578125 C 97.523438 167.3125 101.140625 157.277344 106.753906 148.058594 C 101.140625 157.277344 97.523438 167.3125 95.855469 177.578125 C 94.4375 178.148438 93.03125 178.761719 91.640625 179.421875 " clip-rule="nonzero"/></clipPath><clipPath id="ca8296e6fd"><path d="M 46.457031 252.128906 L 14.097656 224.046875 C 6.484375 217.445312 2.9375 207.898438 3.675781 198.570312 C 2.9375 207.898438 6.484375 217.445312 14.097656 224.046875 L 46.457031 252.128906 M 46.445312 251.082031 C 46.394531 237.328125 49.914062 223.507812 57.121094 211.140625 C 49.914062 223.507812 46.394531 237.328125 46.445312 251.082031 M 91.640625 179.421875 C 93.03125 178.761719 94.4375 178.148438 95.855469 177.578125 C 97.523438 167.3125 101.140625 157.277344 106.753906 148.058594 C 101.140625 157.277344 97.523438 167.3125 95.855469 177.578125 C 94.4375 178.148438 93.03125 178.761719 91.640625 179.421875 " clip-rule="nonzero"/></clipPath><clipPath id="499de97161"><path d="M 47.574219 96.703125 L -48.625 207.382812 L 62.117188 303.484375 L 158.316406 192.800781 Z M 47.574219 96.703125 " clip-rule="nonzero"/></clipPath><linearGradient x1="-0.371312" gradientTransform="matrix(55.425303, 48.095775, -48.134643, 55.380549, 29.775997, 159.455806)" y1="0" x2="1.620154" gradientUnits="userSpaceOnUse" y2="0" id="b316232872"><stop stop-opacity="1" stop-color="rgb(100%, 100%, 100%)" offset="0"/><stop stop-opacity="1" stop-color="rgb(100%, 100%, 100%)" offset="0.125"/><stop stop-opacity="1" stop-color="rgb(100%, 100%, 100%)" offset="0.1875"/><stop stop-opacity="1" stop-color="rgb(99.928284%, 99.928284%, 99.928284%)" offset="0.203125"/><stop stop-opacity="1" stop-color="rgb(99.69635%, 99.69635%, 99.69635%)" offset="0.21875"/><stop stop-opacity="1" stop-color="rgb(99.36676%, 99.36676%, 99.36676%)" offset="0.234375"/><stop stop-opacity="1" stop-color="rgb(99.130249%, 99.130249%, 99.130249%)" offset="0.242188"/><stop stop-opacity="1" stop-color="rgb(98.930359%, 98.930359%, 98.930359%)" offset="0.25"/><stop stop-opacity="1" stop-color="rgb(98.770142%, 98.770142%, 98.770142%)" offset="0.265625"/><stop stop-opacity="1" stop-color="rgb(98.570251%, 98.570251%, 98.570251%)" offset="0.28125"/><stop stop-opacity="1" stop-color="rgb(98.336792%, 98.336792%, 98.336792%)" offset="0.289062"/><stop stop-opacity="1" stop-color="rgb(98.136902%, 98.136902%, 98.136902%)" offset="0.296875"/><stop stop-opacity="1" stop-color="rgb(97.946167%, 97.946167%, 97.946167%)" offset="0.3125"/><stop stop-opacity="1" stop-color="rgb(97.746277%, 97.702026%, 97.702026%)" offset="0.328125"/><stop stop-opacity="1" stop-color="rgb(97.44873%, 97.40448%, 97.40448%)" offset="0.34375"/><stop stop-opacity="1" stop-color="rgb(97.235107%, 97.235107%, 97.235107%)" offset="0.359375"/><stop stop-opacity="1" stop-color="rgb(96.981812%, 96.981812%, 96.981812%)" offset="0.375"/><stop stop-opacity="1" stop-color="rgb(96.646118%, 96.62323%, 96.62323%)" offset="0.390625"/><stop stop-opacity="1" stop-color="rgb(96.44165%, 96.276855%, 96.276855%)" offset="0.40625"/><stop stop-opacity="1" stop-color="rgb(96.24176%, 96.047974%, 96.099854%)" offset="0.414062"/><stop stop-opacity="1" stop-color="rgb(96.052551%, 95.846558%, 96.052551%)" offset="0.421875"/><stop stop-opacity="1" stop-color="rgb(95.834351%, 95.680237%, 95.834351%)" offset="0.4375"/><stop stop-opacity="1" stop-color="rgb(95.480347%, 95.480347%, 95.480347%)" offset="0.453125"/><stop stop-opacity="1" stop-color="rgb(95.298767%, 95.254517%, 95.254517%)" offset="0.460938"/><stop stop-opacity="1" stop-color="rgb(95.277405%, 95.054626%, 95.054626%)" offset="0.46875"/><stop stop-opacity="1" stop-color="rgb(95.077515%, 94.845581%, 94.845581%)" offset="0.484375"/><stop stop-opacity="1" stop-color="rgb(94.850159%, 94.645691%, 94.645691%)" offset="0.492188"/><stop stop-opacity="1" stop-color="rgb(94.650269%, 94.499207%, 94.499207%)" offset="0.5"/><stop stop-opacity="1" stop-color="rgb(94.46106%, 94.46106%, 94.46106%)" offset="0.507813"/><stop stop-opacity="1" stop-color="rgb(94.261169%, 94.261169%, 94.261169%)" offset="0.515625"/><stop stop-opacity="1" stop-color="rgb(94.099426%, 94.099426%, 94.099426%)" offset="0.523438"/><stop stop-opacity="1" stop-color="rgb(93.899536%, 93.899536%, 93.899536%)" offset="0.527344"/><stop stop-opacity="1" stop-color="rgb(93.699646%, 93.699646%, 93.699646%)" offset="0.53125"/><stop stop-opacity="1" stop-color="rgb(93.699646%, 93.681335%, 93.681335%)" offset="0.546875"/><stop stop-opacity="1" stop-color="rgb(93.670654%, 93.481445%, 93.481445%)" offset="0.5625"/><stop stop-opacity="1" stop-color="rgb(93.470764%, 93.254089%, 93.254089%)" offset="0.570313"/><stop stop-opacity="1" stop-color="rgb(93.280029%, 93.054199%, 93.054199%)" offset="0.578125"/><stop stop-opacity="1" stop-color="rgb(93.078613%, 92.89856%, 92.89856%)" offset="0.59375"/><stop stop-opacity="1" stop-color="rgb(92.871094%, 92.871094%, 92.871094%)" offset="0.601562"/><stop stop-opacity="1" stop-color="rgb(92.671204%, 92.671204%, 92.671204%)" offset="0.609375"/><stop stop-opacity="1" stop-color="rgb(92.486572%, 92.349243%, 92.349243%)" offset="0.625"/><stop stop-opacity="1" stop-color="rgb(92.337036%, 92.173767%, 92.173767%)" offset="0.640625"/><stop stop-opacity="1" stop-color="rgb(92.156982%, 91.973877%, 91.973877%)" offset="0.648438"/><stop stop-opacity="1" stop-color="rgb(91.957092%, 91.790771%, 91.799927%)" offset="0.65625"/><stop stop-opacity="1" stop-color="rgb(91.796875%, 91.589355%, 91.796875%)" offset="0.6875"/><stop stop-opacity="1" stop-color="rgb(91.694641%, 91.398621%, 91.694641%)" offset="0.71875"/><stop stop-opacity="1" stop-color="rgb(91.496277%, 91.398621%, 91.496277%)" offset="0.75"/><stop stop-opacity="1" stop-color="rgb(91.398621%, 91.398621%, 91.398621%)" offset="1"/></linearGradient><clipPath id="6c0374a4b7"><path d="M 3.582031 147.855469 L 107 147.855469 L 107 252.335938 L 3.582031 252.335938 Z M 3.582031 147.855469 " clip-rule="nonzero"/></clipPath><clipPath id="8881b9c8b2"><path d="M 46.457031 252.128906 L 14.097656 224.046875 C 6.484375 217.445312 2.9375 207.898438 3.675781 198.570312 C 4.171875 192.289062 6.613281 186.105469 11.0625 180.988281 L 21.097656 169.441406 C 51.332031 151.253906 82.210938 147.9375 100.714844 147.9375 C 102.910156 147.9375 104.929688 147.984375 106.753906 148.058594 C 101.140625 157.277344 97.523438 167.3125 95.855469 177.578125 C 94.4375 178.148438 93.03125 178.761719 91.640625 179.421875 C 82.042969 183.953125 73.207031 190.503906 65.804688 199.023438 C 62.476562 202.855469 59.585938 206.914062 57.121094 211.140625 C 49.914062 223.507812 46.394531 237.328125 46.445312 251.082031 C 46.449219 251.429688 46.449219 251.78125 46.457031 252.128906 " clip-rule="nonzero"/></clipPath><clipPath id="852f6d385e"><path d="M 46.457031 252.128906 L 14.097656 224.046875 C 6.484375 217.445312 2.9375 207.898438 3.675781 198.570312 C 4.171875 192.289062 6.613281 186.105469 11.0625 180.988281 L 21.097656 169.441406 C 51.332031 151.253906 82.210938 147.9375 100.714844 147.9375 C 102.910156 147.9375 104.929688 147.984375 106.753906 148.058594 C 101.140625 157.277344 97.523438 167.3125 95.855469 177.578125 C 94.4375 178.148438 93.03125 178.761719 91.640625 179.421875 C 82.042969 183.953125 73.207031 190.503906 65.804688 199.023438 C 62.476562 202.855469 59.585938 206.914062 57.121094 211.140625 C 49.914062 223.507812 46.394531 237.328125 46.445312 251.082031 C 46.449219 251.429688 46.449219 251.78125 46.457031 252.128906 " clip-rule="nonzero"/></clipPath><clipPath id="dcab05e5df"><path d="M 60.589844 30.78125 L 181.199219 30.78125 L 181.199219 103.203125 L 60.589844 103.203125 Z M 60.589844 30.78125 " clip-rule="nonzero"/></clipPath><clipPath id="feb289fd7c"><path d="M 150.15625 103.164062 C 159.320312 99.691406 169.171875 97.8125 179.308594 97.8125 C 179.9375 97.8125 180.5625 97.820312 181.191406 97.835938 C 180.5625 97.820312 179.9375 97.816406 179.3125 97.816406 C 169.171875 97.816406 159.320312 99.691406 150.15625 103.164062 M 60.84375 97.695312 L 69 55.652344 C 69.425781 53.457031 70.078125 51.363281 70.925781 49.390625 C 70.078125 51.363281 69.425781 53.457031 69 55.652344 L 60.84375 97.695312 M 61.179688 97.496094 C 61.1875 97.488281 61.191406 97.488281 61.199219 97.480469 C 61.191406 97.488281 61.1875 97.488281 61.179688 97.496094 M 111.722656 87.105469 C 108.40625 86.667969 105.105469 86.445312 101.835938 86.429688 C 105.105469 86.445312 108.40625 86.667969 111.722656 87.105469 M 98.648438 86.476562 C 99.570312 86.445312 100.492188 86.429688 101.421875 86.429688 C 101.554688 86.429688 101.691406 86.429688 101.828125 86.429688 C 101.691406 86.429688 101.554688 86.429688 101.421875 86.429688 C 100.492188 86.429688 99.570312 86.445312 98.648438 86.476562 M 104.804688 31.496094 C 102.84375 31.117188 100.886719 30.933594 98.960938 30.933594 C 98.296875 30.933594 97.632812 30.957031 96.976562 31 C 97.632812 30.957031 98.296875 30.933594 98.960938 30.933594 C 100.886719 30.933594 102.84375 31.117188 104.804688 31.496094 " clip-rule="nonzero"/></clipPath><clipPath id="283caf9214"><path d="M 150.15625 103.164062 C 159.320312 99.691406 169.171875 97.8125 179.308594 97.8125 C 179.9375 97.8125 180.5625 97.820312 181.191406 97.835938 C 180.5625 97.820312 179.9375 97.816406 179.3125 97.816406 C 169.171875 97.816406 159.320312 99.691406 150.15625 103.164062 M 60.84375 97.695312 L 69 55.652344 C 69.425781 53.457031 70.078125 51.363281 70.925781 49.390625 C 70.078125 51.363281 69.425781 53.457031 69 55.652344 L 60.84375 97.695312 M 61.179688 97.496094 C 61.1875 97.488281 61.191406 97.488281 61.199219 97.480469 C 61.191406 97.488281 61.1875 97.488281 61.179688 97.496094 M 111.722656 87.105469 C 108.40625 86.667969 105.105469 86.445312 101.835938 86.429688 C 105.105469 86.445312 108.40625 86.667969 111.722656 87.105469 M 98.648438 86.476562 C 99.570312 86.445312 100.492188 86.429688 101.421875 86.429688 C 101.554688 86.429688 101.691406 86.429688 101.828125 86.429688 C 101.691406 86.429688 101.554688 86.429688 101.421875 86.429688 C 100.492188 86.429688 99.570312 86.445312 98.648438 86.476562 M 104.804688 31.496094 C 102.84375 31.117188 100.886719 30.933594 98.960938 30.933594 C 98.296875 30.933594 97.632812 30.957031 96.976562 31 C 97.632812 30.957031 98.296875 30.933594 98.960938 30.933594 C 100.886719 30.933594 102.84375 31.117188 104.804688 31.496094 " clip-rule="nonzero"/></clipPath><clipPath id="674c86bd76"><path d="M 194.699219 33.550781 L 65.203125 8.464844 L 47.332031 100.546875 L 176.828125 125.636719 Z M 194.699219 33.550781 " clip-rule="nonzero"/></clipPath><linearGradient x1="-0.204881" gradientTransform="matrix(-13.973173, 72.008848, -72.067045, -13.96189, 132.832734, 36.873659)" y1="0" x2="1.073926" gradientUnits="userSpaceOnUse" y2="0" id="aaf7c90be4"><stop stop-opacity="1" stop-color="rgb(100%, 100%, 100%)" offset="0"/><stop stop-opacity="1" stop-color="rgb(100%, 100%, 100%)" offset="0.125"/><stop stop-opacity="1" stop-color="rgb(100%, 100%, 100%)" offset="0.15625"/><stop stop-opacity="1" stop-color="rgb(100%, 100%, 100%)" offset="0.171875"/><stop stop-opacity="1" stop-color="rgb(99.986267%, 99.986267%, 99.986267%)" offset="0.179688"/><stop stop-opacity="1" stop-color="rgb(99.784851%, 99.784851%, 99.784851%)" offset="0.1875"/><stop stop-opacity="1" stop-color="rgb(99.586487%, 99.586487%, 99.586487%)" offset="0.203125"/><stop stop-opacity="1" stop-color="rgb(99.386597%, 99.386597%, 99.386597%)" offset="0.21875"/><stop stop-opacity="1" stop-color="rgb(99.188232%, 99.188232%, 99.188232%)" offset="0.25"/><stop stop-opacity="1" stop-color="rgb(98.988342%, 98.988342%, 98.988342%)" offset="0.265625"/><stop stop-opacity="1" stop-color="rgb(98.7854%, 98.7854%, 98.7854%)" offset="0.28125"/><stop stop-opacity="1" stop-color="rgb(98.580933%, 98.580933%, 98.580933%)" offset="0.3125"/><stop stop-opacity="1" stop-color="rgb(98.194885%, 98.194885%, 98.194885%)" offset="0.34375"/><stop stop-opacity="1" stop-color="rgb(97.984314%, 97.984314%, 97.984314%)" offset="0.359375"/><stop stop-opacity="1" stop-color="rgb(97.784424%, 97.776794%, 97.776794%)" offset="0.375"/><stop stop-opacity="1" stop-color="rgb(97.44873%, 97.441101%, 97.441101%)" offset="0.40625"/><stop stop-opacity="1" stop-color="rgb(97.290039%, 97.290039%, 97.290039%)" offset="0.421875"/><stop stop-opacity="1" stop-color="rgb(97.090149%, 97.090149%, 97.090149%)" offset="0.4375"/><stop stop-opacity="1" stop-color="rgb(96.899414%, 96.870422%, 96.899414%)" offset="0.445312"/><stop stop-opacity="1" stop-color="rgb(96.887207%, 96.670532%, 96.887207%)" offset="0.453125"/><stop stop-opacity="1" stop-color="rgb(96.687317%, 96.499634%, 96.687317%)" offset="0.46875"/><stop stop-opacity="1" stop-color="rgb(96.479797%, 96.479797%, 96.479797%)" offset="0.5"/><stop stop-opacity="1" stop-color="rgb(96.273804%, 96.273804%, 96.273804%)" offset="0.515625"/><stop stop-opacity="1" stop-color="rgb(95.892334%, 95.892334%, 95.892334%)" offset="0.53125"/><stop stop-opacity="1" stop-color="rgb(95.69397%, 95.69397%, 95.69397%)" offset="0.5625"/><stop stop-opacity="1" stop-color="rgb(95.587158%, 95.587158%, 95.587158%)" offset="0.570312"/><stop stop-opacity="1" stop-color="rgb(95.39032%, 95.379639%, 95.379639%)" offset="0.578125"/><stop stop-opacity="1" stop-color="rgb(95.295715%, 95.08667%, 95.08667%)" offset="0.59375"/><stop stop-opacity="1" stop-color="rgb(95.191956%, 94.898987%, 94.898987%)" offset="0.609375"/><stop stop-opacity="1" stop-color="rgb(94.995117%, 94.888306%, 94.888306%)" offset="0.625"/><stop stop-opacity="1" stop-color="rgb(94.892883%, 94.688416%, 94.688416%)" offset="0.640625"/><stop stop-opacity="1" stop-color="rgb(94.784546%, 94.499207%, 94.499207%)" offset="0.648438"/><stop stop-opacity="1" stop-color="rgb(94.58313%, 94.493103%, 94.493103%)" offset="0.65625"/><stop stop-opacity="1" stop-color="rgb(94.389343%, 94.389343%, 94.389343%)" offset="0.671875"/><stop stop-opacity="1" stop-color="rgb(94.195557%, 94.190979%, 94.195557%)" offset="0.6875"/><stop stop-opacity="1" stop-color="rgb(94.099426%, 93.988037%, 94.099426%)" offset="0.695312"/><stop stop-opacity="1" stop-color="rgb(94.087219%, 93.791199%, 94.087219%)" offset="0.703125"/><stop stop-opacity="1" stop-color="rgb(93.884277%, 93.695068%, 93.884277%)" offset="0.71875"/><stop stop-opacity="1" stop-color="rgb(93.591309%, 93.591309%, 93.591309%)" offset="0.734375"/><stop stop-opacity="1" stop-color="rgb(93.39447%, 93.39447%, 93.39447%)" offset="0.75"/><stop stop-opacity="1" stop-color="rgb(93.299866%, 93.287659%, 93.287659%)" offset="0.765625"/><stop stop-opacity="1" stop-color="rgb(93.269348%, 93.087769%, 93.087769%)" offset="0.773437"/><stop stop-opacity="1" stop-color="rgb(93.067932%, 92.892456%, 92.892456%)" offset="0.78125"/><stop stop-opacity="1" stop-color="rgb(92.895508%, 92.692566%, 92.692566%)" offset="0.8125"/><stop stop-opacity="1" stop-color="rgb(92.788696%, 92.498779%, 92.498779%)" offset="0.820312"/><stop stop-opacity="1" stop-color="rgb(92.591858%, 92.481995%, 92.498779%)" offset="0.828125"/><stop stop-opacity="1" stop-color="rgb(92.349243%, 92.329407%, 92.349243%)" offset="0.84375"/><stop stop-opacity="1" stop-color="rgb(92.199707%, 92.09137%, 92.199707%)" offset="0.859375"/><stop stop-opacity="1" stop-color="rgb(92.190552%, 91.894531%, 92.190552%)" offset="0.875"/><stop stop-opacity="1" stop-color="rgb(91.990662%, 91.793823%, 91.990662%)" offset="0.890625"/><stop stop-opacity="1" stop-color="rgb(91.792297%, 91.593933%, 91.792297%)" offset="0.90625"/><stop stop-opacity="1" stop-color="rgb(91.592407%, 91.398621%, 91.592407%)" offset="0.9375"/><stop stop-opacity="1" stop-color="rgb(91.398621%, 91.398621%, 91.398621%)" offset="1"/></linearGradient><clipPath id="a2446c3ebd"><path d="M 60.589844 30.78125 L 181.199219 30.78125 L 181.199219 103.203125 L 60.589844 103.203125 Z M 60.589844 30.78125 " clip-rule="nonzero"/></clipPath><clipPath id="5dc44b46ab"><path d="M 150.15625 103.164062 C 140.625 95.710938 129.230469 90.34375 116.542969 87.886719 C 114.933594 87.574219 113.324219 87.3125 111.722656 87.105469 C 108.40625 86.667969 105.105469 86.445312 101.835938 86.429688 C 101.835938 86.429688 101.832031 86.429688 101.828125 86.429688 C 101.691406 86.429688 101.554688 86.429688 101.421875 86.429688 C 100.492188 86.429688 99.570312 86.445312 98.648438 86.476562 C 85.210938 86.953125 72.378906 90.855469 61.199219 97.480469 C 61.191406 97.488281 61.1875 97.488281 61.179688 97.496094 C 61.066406 97.5625 60.953125 97.628906 60.84375 97.695312 L 69 55.652344 C 69.425781 53.457031 70.078125 51.363281 70.925781 49.390625 C 75.453125 38.859375 85.59375 31.742188 96.976562 31 C 97.632812 30.957031 98.296875 30.933594 98.960938 30.933594 C 100.886719 30.933594 102.84375 31.117188 104.804688 31.496094 L 119.832031 34.410156 C 154.371094 53.503906 173.191406 82.59375 181.191406 97.835938 C 180.5625 97.820312 179.9375 97.8125 179.308594 97.8125 C 169.171875 97.8125 159.320312 99.691406 150.15625 103.164062 " clip-rule="nonzero"/></clipPath><clipPath id="1fc521b286"><path d="M 150.15625 103.164062 C 140.625 95.710938 129.230469 90.34375 116.542969 87.886719 C 114.933594 87.574219 113.324219 87.3125 111.722656 87.105469 C 108.40625 86.667969 105.105469 86.445312 101.835938 86.429688 C 101.835938 86.429688 101.832031 86.429688 101.828125 86.429688 C 101.691406 86.429688 101.554688 86.429688 101.421875 86.429688 C 100.492188 86.429688 99.570312 86.445312 98.648438 86.476562 C 85.210938 86.953125 72.378906 90.855469 61.199219 97.480469 C 61.191406 97.488281 61.1875 97.488281 61.179688 97.496094 C 61.066406 97.5625 60.953125 97.628906 60.84375 97.695312 L 69 55.652344 C 69.425781 53.457031 70.078125 51.363281 70.925781 49.390625 C 75.453125 38.859375 85.59375 31.742188 96.976562 31 C 97.632812 30.957031 98.296875 30.933594 98.960938 30.933594 C 100.886719 30.933594 102.84375 31.117188 104.804688 31.496094 L 119.832031 34.410156 C 154.371094 53.503906 173.191406 82.59375 181.191406 97.835938 C 180.5625 97.820312 179.9375 97.8125 179.308594 97.8125 C 169.171875 97.8125 159.320312 99.691406 150.15625 103.164062 " clip-rule="nonzero"/></clipPath><clipPath id="4095ddc4aa"><path d="M 194.699219 33.550781 L 65.203125 8.464844 L 47.332031 100.546875 L 176.828125 125.636719 Z M 194.699219 33.550781 " clip-rule="nonzero"/></clipPath><linearGradient x1="-0.204881" gradientTransform="matrix(-13.973173, 72.008848, -72.067045, -13.96189, 132.832734, 36.873659)" y1="0" x2="1.073926" gradientUnits="userSpaceOnUse" y2="0" id="7fe025d152"><stop stop-opacity="1" stop-color="rgb(92.89856%, 10.998535%, 14.099121%)" offset="0"/><stop stop-opacity="1" stop-color="rgb(92.89856%, 10.998535%, 14.099121%)" offset="0.25"/><stop stop-opacity="1" stop-color="rgb(92.897034%, 10.998535%, 14.099121%)" offset="0.3125"/><stop stop-opacity="1" stop-color="rgb(92.796326%, 10.998535%, 14.099121%)" offset="0.34375"/><stop stop-opacity="1" stop-color="rgb(92.596436%, 10.998535%, 14.099121%)" offset="0.375"/><stop stop-opacity="1" stop-color="rgb(92.349243%, 10.998535%, 14.099121%)" offset="0.5"/><stop stop-opacity="1" stop-color="rgb(92.198181%, 10.998535%, 14.099121%)" offset="0.625"/><stop stop-opacity="1" stop-color="rgb(92.095947%, 10.998535%, 14.099121%)" offset="0.6875"/><stop stop-opacity="1" stop-color="rgb(91.897583%, 10.998535%, 14.097595%)" offset="0.75"/><stop stop-opacity="1" stop-color="rgb(91.799927%, 10.998535%, 13.995361%)" offset="0.8125"/><stop stop-opacity="1" stop-color="rgb(91.799927%, 10.998535%, 13.796997%)" offset="0.875"/><stop stop-opacity="1" stop-color="rgb(91.793823%, 10.993958%, 13.699341%)" offset="0.890625"/><stop stop-opacity="1" stop-color="rgb(91.593933%, 10.794067%, 13.699341%)" offset="0.90625"/><stop stop-opacity="1" stop-color="rgb(91.398621%, 10.598755%, 13.699341%)" offset="0.9375"/><stop stop-opacity="1" stop-color="rgb(91.398621%, 10.598755%, 13.699341%)" offset="1"/></linearGradient></defs><path fill="#1082ce" d="M 242.402344 18.964844 L 201.882812 32.925781 C 218.339844 42.050781 231.617188 57.042969 238.238281 76.21875 C 242.453125 88.433594 243.496094 100.976562 241.796875 112.945312 C 249.863281 119.523438 256.753906 127.671875 261.9375 137.136719 C 264.167969 141.183594 266.074219 145.484375 267.636719 150 C 272.265625 163.417969 273.242188 177.207031 271.085938 190.289062 C 282.308594 185.773438 292.652344 178.601562 301.132812 168.847656 C 308.4375 160.433594 313.648438 150.917969 316.8125 140.9375 L 281.242188 37.871094 C 275.746094 21.9375 258.347656 13.46875 242.402344 18.964844 " fill-opacity="1" fill-rule="nonzero"/><g clip-path="url(#f6cc7bc4eb)"><g clip-path="url(#1a32486dc4)"><g clip-path="url(#892a6f0825)"><g clip-path="url(#63ea5c8cf1)"><path fill="url(#7ec8af2108)" d="M 317.046875 124.398438 L 271.765625 -6.792969 L 164.917969 30.027344 L 210.195312 161.21875 Z M 317.046875 124.398438 " fill-rule="nonzero"/></g></g></g></g><g clip-path="url(#716180ce17)"><g clip-path="url(#ec56a3c679)"><g clip-path="url(#6da97d9a4c)"><path fill="#00adef" d="M 323.921875 124.398438 L 277.910156 -8.910156 L 164.917969 30.027344 L 210.925781 163.335938 Z M 323.921875 124.398438 " fill-opacity="1" fill-rule="nonzero"/></g></g></g><path fill="#f3651d" d="M 360.902344 150.671875 L 328.539062 122.589844 C 328.859375 141.390625 322.507812 160.378906 309.191406 175.695312 C 300.71875 185.449219 290.367188 192.621094 279.140625 197.140625 C 277.476562 207.40625 273.859375 217.441406 268.246094 226.664062 C 265.851562 230.613281 263.082031 234.417969 259.945312 238.027344 C 250.632812 248.742188 239.164062 256.480469 226.753906 261.15625 C 236.277344 268.609375 247.667969 273.976562 260.359375 276.4375 C 271.300781 278.546875 282.15625 278.296875 292.390625 276.046875 L 363.933594 193.734375 C 374.996094 181.007812 373.632812 161.722656 360.902344 150.671875 " fill-opacity="1" fill-rule="nonzero"/><g clip-path="url(#a2c494cd6c)"><g clip-path="url(#b9e34bacfd)"><g clip-path="url(#6b7ceae688)"><g clip-path="url(#eb4f9f6a05)"><path fill="url(#0ef1f9c1d9)" d="M 327.058594 277.699219 L 422.984375 167.335938 L 312.605469 71.554688 L 216.683594 181.917969 Z M 327.058594 277.699219 " fill-rule="nonzero"/></g></g></g></g><g clip-path="url(#94b7e6e99c)"><g clip-path="url(#970b10d5fb)"><g clip-path="url(#a9e55f7079)"><path fill="#f9ae1c" d="M 329.09375 279.582031 L 426.609375 167.386719 L 314.140625 69.789062 L 216.625 181.984375 Z M 329.09375 279.582031 " fill-opacity="1" fill-rule="nonzero"/></g></g></g><path fill="#5e2590" d="M 306 319.0625 L 314.15625 277.023438 C 298.023438 286.699219 278.386719 290.695312 258.457031 286.832031 C 245.765625 284.375 234.375 279.003906 224.84375 271.554688 C 215.113281 275.242188 204.609375 277.128906 193.808594 276.882812 C 189.1875 276.789062 184.507812 276.289062 179.808594 275.382812 C 165.867188 272.679688 153.425781 266.628906 143.167969 258.222656 C 141.46875 270.191406 142.511719 282.730469 146.726562 294.949219 C 150.367188 305.472656 156.011719 314.738281 163.078125 322.472656 L 270.195312 343.222656 C 286.753906 346.429688 302.789062 335.609375 306 319.0625 " fill-opacity="1" fill-rule="nonzero"/><g clip-path="url(#49f3b74006)"><g clip-path="url(#a14e718b00)"><g clip-path="url(#0068a30783)"><g clip-path="url(#d9793bb527)"><path fill="url(#2ee14c63c1)" d="M 183.976562 323.160156 L 309.804688 347.539062 L 324.171875 273.492188 L 198.34375 249.117188 Z M 183.976562 323.160156 " fill-rule="nonzero"/></g></g></g></g><g clip-path="url(#b6453b0e68)"><g clip-path="url(#483455df90)"><g clip-path="url(#5b2295161a)"><path fill="#8d188f" d="M 180.300781 341.167969 L 309.796875 366.253906 L 327.667969 274.171875 L 198.167969 249.082031 Z M 180.300781 341.167969 " fill-opacity="1" fill-rule="nonzero"/></g></g></g><path fill="#40b93c" d="M 132.597656 355.753906 L 173.117188 341.792969 C 156.660156 332.667969 143.382812 317.675781 136.761719 298.5 C 132.546875 286.285156 131.503906 273.742188 133.203125 261.773438 C 125.136719 255.195312 118.246094 247.046875 113.0625 237.582031 C 110.832031 233.535156 108.921875 229.234375 107.363281 224.71875 C 102.734375 211.300781 101.757812 197.511719 103.914062 184.429688 C 92.691406 188.945312 82.34375 196.117188 73.863281 205.871094 C 66.5625 214.285156 61.351562 223.800781 58.183594 233.78125 L 93.757812 336.847656 C 99.257812 352.78125 116.652344 361.25 132.597656 355.753906 " fill-opacity="1" fill-rule="nonzero"/><g clip-path="url(#25b1482ab4)"><g clip-path="url(#20798eab49)"><g clip-path="url(#fe139b54e1)"><g clip-path="url(#c1a9234751)"><path fill="url(#9fe2c1d8c6)" d="M 58.738281 250.320312 L 103.824219 380.957031 L 209.074219 344.691406 L 163.988281 214.054688 Z M 58.738281 250.320312 " fill-rule="nonzero"/></g></g></g></g><g clip-path="url(#59a20299bc)"><g clip-path="url(#e131ca105c)"><g clip-path="url(#a1fa7eb820)"><path fill="#80cc28" d="M 51.078125 250.320312 L 97.085938 383.628906 L 210.082031 344.691406 L 164.074219 211.382812 Z M 51.078125 250.320312 " fill-opacity="1" fill-rule="nonzero"/></g></g></g><path fill="#fbc108" d="M 14.097656 224.046875 L 46.457031 252.128906 C 46.136719 233.328125 52.492188 214.339844 65.804688 199.023438 C 74.28125 189.269531 84.628906 182.097656 95.855469 177.578125 C 97.523438 167.3125 101.140625 157.277344 106.753906 148.058594 C 109.144531 144.105469 111.917969 140.304688 115.054688 136.695312 C 124.367188 125.980469 135.832031 118.238281 148.246094 113.566406 C 138.722656 106.109375 127.332031 100.742188 114.636719 98.28125 C 103.695312 96.171875 92.839844 96.421875 82.609375 98.671875 L 11.0625 180.988281 C 0.00390625 193.710938 1.363281 213 14.097656 224.046875 " fill-opacity="1" fill-rule="nonzero"/><g clip-path="url(#e8500baac7)"><g clip-path="url(#814689e264)"><g clip-path="url(#ca8296e6fd)"><g clip-path="url(#499de97161)"><path fill="url(#b316232872)" d="M 47.941406 97.019531 L -47.984375 207.382812 L 62.394531 303.164062 L 158.316406 192.800781 Z M 47.941406 97.019531 " fill-rule="nonzero"/></g></g></g></g><g clip-path="url(#6c0374a4b7)"><g clip-path="url(#8881b9c8b2)"><g clip-path="url(#852f6d385e)"><path fill="#fff200" d="M 47.574219 96.582031 L -48.683594 207.332031 L 62.117188 303.484375 L 158.375 192.734375 Z M 47.574219 96.582031 " fill-opacity="1" fill-rule="nonzero"/></g></g></g><path fill="#d91920" d="M 69 55.652344 L 60.84375 97.695312 C 76.976562 88.019531 96.609375 84.023438 116.542969 87.886719 C 129.230469 90.34375 140.625 95.714844 150.15625 103.164062 C 159.886719 99.476562 170.390625 97.589844 181.191406 97.835938 C 185.8125 97.929688 190.492188 98.429688 195.1875 99.335938 C 209.132812 102.039062 221.574219 108.089844 231.832031 116.496094 C 233.527344 104.527344 232.484375 91.988281 228.273438 79.769531 C 224.632812 69.246094 218.988281 59.980469 211.921875 52.246094 L 104.804688 31.496094 C 88.246094 28.289062 72.210938 39.109375 69 55.652344 " fill-opacity="1" fill-rule="nonzero"/><g clip-path="url(#dcab05e5df)"><g clip-path="url(#feb289fd7c)"><g clip-path="url(#283caf9214)"><g clip-path="url(#674c86bd76)"><path fill="url(#aaf7c90be4)" d="M 194.699219 33.550781 L 65.203125 8.464844 L 47.332031 100.546875 L 176.832031 125.636719 Z M 194.699219 33.550781 " fill-rule="nonzero"/></g></g></g></g><g clip-path="url(#a2446c3ebd)"><g clip-path="url(#5dc44b46ab)"><g clip-path="url(#1fc521b286)"><g clip-path="url(#4095ddc4aa)"><path fill="url(#7fe025d152)" d="M 194.699219 33.550781 L 65.203125 8.464844 L 47.332031 100.546875 L 176.832031 125.636719 Z M 194.699219 33.550781 " fill-rule="nonzero"/></g></g></g></g><path fill="#161738" d="M 242.429688 147.523438 C 243.046875 149.488281 243.378906 151.582031 243.378906 153.746094 C 243.378906 165.199219 234.09375 174.480469 222.632812 174.480469 C 211.175781 174.480469 201.882812 165.199219 201.882812 153.746094 C 201.882812 142.296875 211.175781 133.019531 222.632812 133.019531 C 225.121094 133.019531 227.503906 133.457031 229.714844 134.257812 C 218.128906 125.050781 203.457031 119.542969 187.5 119.542969 C 150.015625 119.542969 119.628906 149.90625 119.628906 187.359375 C 119.628906 224.816406 150.015625 255.175781 187.5 255.175781 C 224.984375 255.175781 255.371094 224.816406 255.371094 187.359375 C 255.371094 172.472656 250.566406 158.707031 242.429688 147.523438 " fill-opacity="1" fill-rule="nonzero"/></svg>