<?xml version="1.0" encoding="utf-8"?>
<!-- Generator: Adobe Illustrator 22.0.1, SVG Export Plug-In . SVG Version: 6.00 Build 0)  -->
<svg version="1.1" id="Layer_1" xmlns="http://www.w3.org/2000/svg" xmlns:xlink="http://www.w3.org/1999/xlink" x="0px" y="0px"
	 viewBox="0 0 128 128" style="enable-background:new 0 0 128 128;" xml:space="preserve">
<style type="text/css">
	.st0{fill:#3A2C60;}
	.st1{fill:#E6E7E8;}
	.st2{fill:#FFFFFF;}
	.st3{fill:#FFD7E5;}
	.st4{fill:#0089EF;}
	.st5{fill:#6DC9F7;}
	.st6{fill:#FA759E;}
	.st7{fill:#D4FBFF;}
	.st8{fill:none;stroke:#3A2C60;stroke-width:2;stroke-linecap:round;stroke-linejoin:round;stroke-miterlimit:10;}
</style>
<g>
	<g>
		<path class="st1" d="M91.485,78.66c0.093-0.326,0.168-0.646,0.227-0.941l0.226,0.076v-1v-2.453v-4.187v-3.452v-4.187v-2.173
			v-1.279c0-2.017-1.052-3.838-2.7-4.887c0.017-0.093,0.034-0.187,0.05-0.28c0.49,0.392,1.048,0.634,1.651,0.634
			c1.861,0,3.369-2.13,3.369-4.757c0-0.718-0.121-1.392-0.323-2.002V37.629c0-14.903-12.081-26.985-26.985-26.985
			S40.015,22.725,40.015,37.629v10.144c-0.202,0.61-0.323,1.284-0.323,2.002c0,2.627,1.508,4.757,3.369,4.757
			c0.603,0,1.161-0.242,1.651-0.634c0.016,0.094,0.033,0.187,0.05,0.28c-1.648,1.049-2.7,2.87-2.7,4.887v1.279v2.173v4.187v3.452
			v4.187v2.453v1l0.226-0.076c0.059,0.295,0.133,0.615,0.227,0.941c-6.53,5.329-10.701,13.438-10.701,22.524v22.173h70.373v-22.173
			C102.186,92.098,98.015,83.989,91.485,78.66z M53.873,72.977l0.065-0.181v-3.173v-1.06c2.341,1.66,5.009,2.885,7.892,3.56h-0.954
			C58.461,72.122,56.116,72.421,53.873,72.977z M72.171,72.122c2.883-0.675,5.551-1.9,7.892-3.56v1.06v3.173l0.065,0.181
			c-2.243-0.555-4.588-0.855-7.003-0.855H72.171z"/>
	</g>
	<g>
		<g>
			<path class="st2" d="M70.82,67.251c-0.471,5.594-4.241,17.804-8.821,17.804c-4.581,0-8.35-12.21-8.821-17.804
				c-14.785,1.362-26.363,13.793-26.363,28.933v22.173h70.373V96.184C97.186,81.043,85.606,68.611,70.82,67.251z"/>
		</g>
		<path class="st4" d="M70.474,69.729c-1.12,6.087-4.491,15.326-8.476,15.326c-3.984,0-7.355-9.239-8.475-15.325
			c-14.949,1.199-26.709,13.701-26.709,28.959v22.173h70.373V98.688C97.186,83.43,85.425,70.926,70.474,69.729z"/>
		<g>
			<g>
				<path class="st2" d="M61.998,67.723L61.998,67.723c-3.15,0-6.148-0.646-8.872-1.809v0.269c0,4.9,3.972,18.872,8.872,18.872
					c4.9,0,8.872-13.972,8.872-18.872v-0.269C68.146,67.077,65.148,67.723,61.998,67.723z"/>
			</g>
			<g>
				<path class="st6" d="M61.998,77.055c-3.019,0-5.806-2.291-8.054-5.343c1.407,5.922,4.483,13.343,8.054,13.343
					c3.571,0,6.648-7.421,8.054-13.343C67.804,74.764,65.017,77.055,61.998,77.055z"/>
			</g>
		</g>
		<g>
			<g>
				<g>
					<rect x="39.366" y="77.015" class="st6" width="5.448" height="4.001"/>
					<path class="st5" d="M44.814,81.016h-5.448c0,0-0.967,1.825-0.538,3.347c0.549,1.949,2.94,3.703,3.284,3.703
						c0.324,0,2.704-1.668,3.236-3.525C45.823,82.885,44.814,81.016,44.814,81.016z"/>
				</g>
				<g>
					<path class="st5" d="M44.983,70.127l-7.695,2.592c0.109,0.546,0.269,1.196,0.505,1.755c0.515,1.222,1.572,2.542,1.572,2.542
						h5.495c0,0,1.469-1.696,2.126-3.708c0.556-1.7,0.573-4.012,0.554-4.932C46.873,69.16,46.007,69.782,44.983,70.127z"/>
					<path class="st5" d="M46.832,61.879l-5.815,1.959c-2.363,0.796-3.954,3.011-3.954,5.505v3.452l7.92-2.668
						c2.363-0.796,3.955-3.011,3.955-5.505v-1.06C48.203,63.041,47.498,62.482,46.832,61.879z"/>
					<path class="st5" d="M42.092,55.836l-1.075,0.362c-2.363,0.796-3.954,3.011-3.954,5.505v3.452l7.92-2.668
						c0.587-0.198,1.125-0.484,1.605-0.839C44.792,59.974,43.268,58.014,42.092,55.836z"/>
					<path class="st5" d="M39.763,49.177c-1.648,1.049-2.7,2.87-2.7,4.887v3.452l5.023-1.692
						C40.983,53.777,40.192,51.541,39.763,49.177z"/>
				</g>
			</g>
			<g>
				<g>
					<rect x="79.186" y="77.015" class="st6" width="5.448" height="4.001"/>
					<path class="st5" d="M84.634,81.016h-5.448c0,0-1.009,1.869-0.535,3.525c0.532,1.857,2.912,3.525,3.236,3.525
						c0.344,0,2.735-1.754,3.284-3.703C85.6,82.841,84.634,81.016,84.634,81.016z"/>
				</g>
				<g>
					<path class="st5" d="M79.017,70.127l7.695,2.592c-0.109,0.546-0.269,1.196-0.505,1.755c-0.515,1.222-1.572,2.542-1.572,2.542
						h-5.495c0,0-1.469-1.696-2.126-3.708c-0.556-1.7-0.573-4.012-0.554-4.932C77.127,69.16,77.993,69.782,79.017,70.127z"/>
					<path class="st5" d="M82.983,63.838l-5.815-1.959c-0.666,0.603-1.371,1.162-2.105,1.683v1.06c0,2.494,1.591,4.709,3.955,5.505
						l7.92,2.668v-3.452C86.938,66.849,85.346,64.634,82.983,63.838z"/>
					<path class="st5" d="M82.983,56.198l-1.075-0.362c-1.175,2.178-2.7,4.138-4.495,5.812c0.479,0.355,1.018,0.641,1.605,0.839
						l7.92,2.668v-3.452C86.938,59.21,85.346,56.994,82.983,56.198z"/>
					<path class="st5" d="M84.237,49.177c-0.429,2.364-1.22,4.6-2.323,6.647l5.023,1.692v-3.452
						C86.938,52.047,85.886,50.226,84.237,49.177z"/>
				</g>
			</g>
		</g>
		<path class="st5" d="M62,5.644L62,5.644c-14.903,0-26.985,12.082-26.985,26.985v10.144c0.536-1.623,1.694-2.755,3.047-2.755
			c0.473,0,0.922,0.14,1.33,0.388V40.1c0-2.684,1.882-4.986,4.504-5.558c3.099-0.677,7.214-1.861,10.391-3.803
			C60.141,27.158,62,21.322,62,21.322s1.638,5.041,6.262,9.041c2.703,2.338,7.831,3.637,11.626,4.313
			c2.724,0.485,4.721,2.832,4.721,5.6v0.129c0.408-0.248,0.857-0.388,1.33-0.388c1.352,0,2.51,1.132,3.047,2.755V32.629
			C88.985,17.725,76.903,5.644,62,5.644z"/>
		<g>
			<g>
				<path class="st2" d="M85.938,40.017c-0.473,0-0.922,0.14-1.33,0.388v4.709c0,1.289-0.114,2.552-0.321,3.782
					c0.49,0.392,1.048,0.634,1.651,0.634c1.861,0,3.369-2.13,3.369-4.757S87.799,40.017,85.938,40.017z"/>
				<path class="st2" d="M39.392,45.115v-4.709c-0.408-0.248-0.857-0.388-1.33-0.388c-1.861,0-3.369,2.13-3.369,4.757
					s1.508,4.757,3.369,4.757c0.603,0,1.161-0.242,1.651-0.634C39.505,47.666,39.392,46.404,39.392,45.115z"/>
			</g>
			<path class="st2" d="M79.888,34.676c-3.795-0.676-8.923-1.975-11.626-4.313c-4.624-4-6.262-9.041-6.262-9.041
				s-1.859,5.836-7.713,9.416c-3.177,1.943-7.291,3.127-10.391,3.803c-2.623,0.573-4.504,2.874-4.504,5.558v5.014
				c0,12.486,10.122,22.608,22.608,22.608h0c12.486,0,22.608-10.122,22.608-22.608v-4.838
				C84.608,37.509,82.612,35.162,79.888,34.676z"/>
			<g>
				<g>
					<path class="st3" d="M74.894,46.505c-1.109,0-2.008,0.567-2.008,1.266c0,0.699,0.899,1.266,2.008,1.266
						s2.008-0.567,2.008-1.266C76.902,47.072,76.003,46.505,74.894,46.505z"/>
					<path class="st3" d="M49.106,46.224c-1.109,0-2.008,0.567-2.008,1.266s0.899,1.266,2.008,1.266
						c1.109,0,2.008-0.567,2.008-1.266S50.215,46.224,49.106,46.224z"/>
				</g>
				<g>
					<path class="st6" d="M62,58.942c-3.454,0-5.212-2.381-5.285-2.482c-0.33-0.458-0.227-1.096,0.23-1.425
						c0.455-0.328,1.09-0.227,1.421,0.224C58.421,55.333,59.625,56.9,62,56.9c2.325,0,3.595-1.592,3.647-1.66
						c0.346-0.443,0.986-0.526,1.43-0.184c0.444,0.342,0.532,0.976,0.193,1.423C67.194,56.58,65.366,58.942,62,58.942z"/>
				</g>
			</g>
		</g>
		<g>
			<circle class="st0" cx="65" cy="87.792" r="1.304"/>
			<circle class="st0" cx="65" cy="95.667" r="1.304"/>
			<circle class="st0" cx="65" cy="103.542" r="1.304"/>
			<circle class="st0" cx="65" cy="111.417" r="1.304"/>
			<path class="st0" d="M87.569,73.287c0,0.001,0,0.001,0,0.002c0.033-0.129,0.065-0.257,0.096-0.38
				c0.182-0.729,0.273-1.478,0.273-2.229v-1.337v-4.188v-3.452v-4.188v-2.173v-1.279c0-1.332-0.398-2.588-1.083-3.656
				c1.996-0.541,3.453-2.821,3.453-5.634c0-0.786-0.116-1.53-0.323-2.207v-9.939C89.984,17.198,77.431,4.644,62,4.644
				c-15.431,0-27.985,12.554-27.985,27.985v9.942c-0.207,0.676-0.322,1.418-0.322,2.203c0,2.813,1.457,5.093,3.452,5.634
				c-0.685,1.068-1.083,2.324-1.083,3.656v1.279v2.173v4.188v3.452v4.188v1.337c0,0.751,0.091,1.5,0.273,2.229
				c0.031,0.124,0.063,0.251,0.096,0.38c0,0,0-0.001,0-0.001c-6.49,5.517-10.617,13.731-10.617,22.897v22.173c0,0.552,0.448,1,1,1
				h70.373c0.553,0,1-0.448,1-1V96.184C98.187,87.018,94.059,78.804,87.569,73.287z M88.708,77.147
				c-1.166,0.854-2.198,1.846-3.075,2.95v-2.74c0.359-0.482,1.077-1.502,1.495-2.496c-0.069,0.163-0.154,0.324-0.236,0.486
				C87.527,75.918,88.129,76.521,88.708,77.147z M39.791,84.092c-0.186-0.66,0.02-1.5,0.23-2.076h4.141
				c0.221,0.602,0.438,1.506,0.225,2.25c-0.323,1.13-1.641,2.264-2.271,2.687C41.482,86.513,40.134,85.309,39.791,84.092z
				 M40.366,80.016v-2.001h3.448v2.001H40.366z M44.378,76.015h-4.517c-0.352-0.485-0.863-1.257-1.147-1.93
				c-0.094-0.222-0.167-0.468-0.237-0.711l6.825-2.299c0.413-0.139,0.798-0.326,1.168-0.534c-0.067,0.823-0.191,1.71-0.435,2.456
				C45.614,74.284,44.803,75.456,44.378,76.015z M44.664,69.179l-6.601,2.224v-2.06c0-2.066,1.315-3.898,3.274-4.557l5.286-1.781
				c0.427,0.367,0.863,0.723,1.315,1.06v0.557C47.938,66.688,46.622,68.52,44.664,69.179z M61.989,23.83
				c0.961,1.923,2.729,4.79,5.618,7.29c2.87,2.483,8.167,3.84,12.104,4.541c2.258,0.402,3.896,2.343,3.896,4.616v4.838
				c0,8.934-5.45,16.619-13.201,19.905c-4.678,1.977-9.985,2.223-14.817,0.733c-0.023-0.007-0.045-0.015-0.067-0.022
				c-0.642-0.2-1.274-0.434-1.896-0.696c-7.769-3.277-13.236-10.972-13.236-19.919V40.1c0-2.22,1.529-4.104,3.718-4.581
				c3.035-0.663,7.354-1.882,10.699-3.928C58.668,29.231,60.871,25.971,61.989,23.83z M84.857,51.032
				c0.681,0.837,1.081,1.898,1.081,3.031v2.06l-2.616-0.881C83.96,53.903,84.478,52.495,84.857,51.032z M82.36,57.044l0.303,0.102
				c1.958,0.659,3.274,2.491,3.274,4.557v2.06l-6.601-2.224c-0.1-0.034-0.19-0.081-0.286-0.122
				C80.315,60.096,81.427,58.63,82.36,57.044z M74.079,65.922c0.004,0.272,0.024,0.544,0.044,0.815
				c-0.64-0.13-1.288-0.235-1.941-0.326c0.647-0.311,1.277-0.652,1.89-1.019C74.074,65.556,74.076,65.734,74.079,65.922z
				 M55.992,67.946c0.047,0.012,0.093,0.026,0.14,0.038c0.583,0.15,1.177,0.271,1.777,0.377c0.068,0.012,0.135,0.025,0.203,0.036
				c0.61,0.102,1.229,0.179,1.854,0.232c0.035,0.003,0.07,0.005,0.105,0.008c0.637,0.052,1.279,0.085,1.929,0.085
				c0.65,0,1.292-0.034,1.928-0.085c0.033-0.003,0.067-0.005,0.1-0.008c0.628-0.054,1.25-0.131,1.864-0.234
				c0.061-0.01,0.122-0.022,0.183-0.033c0.614-0.107,1.223-0.232,1.82-0.386c0.022-0.006,0.043-0.013,0.064-0.018
				c0.544-0.142,1.079-0.308,1.607-0.487c0.081-0.027,0.165-0.046,0.246-0.075c-0.098,1.106-0.316,2.395-0.628,3.757
				c-0.01,0.031-0.032,0.055-0.039,0.088c-0.001,0.005,0.001,0.009,0,0.013c-1.664,2.222-4.221,4.799-7.146,4.799
				c-2.923,0-5.478-2.572-7.141-4.793c-0.001-0.006,0.001-0.013,0-0.019c-0.009-0.041-0.035-0.072-0.048-0.11
				c-0.309-1.354-0.526-2.635-0.623-3.735c0.091,0.032,0.186,0.053,0.278,0.084C54.966,67.652,55.475,67.809,55.992,67.946z
				 M62,84.003c-0.059,0-0.11,0.024-0.167,0.034c-1.621-0.17-3.552-2.832-5.135-6.827c-0.001-0.003,0-0.006-0.001-0.009
				c-0.002-0.007-0.008-0.012-0.01-0.019c-0.207-0.525-0.41-1.069-0.604-1.636c3.852,3.307,7.977,3.307,11.828,0
				c-1.675,4.904-3.91,8.296-5.747,8.492C62.11,84.026,62.059,84.003,62,84.003z M41.64,57.044c0.933,1.586,2.045,3.052,3.31,4.374
				c-0.096,0.04-0.186,0.088-0.286,0.122l-6.601,2.224v-2.06c0-2.066,1.315-3.898,3.274-4.557L41.64,57.044z M40.679,55.242
				l-2.616,0.881v-2.06c0-1.134,0.399-2.194,1.081-3.031C39.522,52.495,40.04,53.903,40.679,55.242z M49.921,65.922
				c0.003-0.188,0.005-0.366,0.007-0.53c0.613,0.366,1.243,0.708,1.89,1.018c-0.653,0.091-1.301,0.195-1.941,0.326
				C49.898,66.466,49.918,66.194,49.921,65.922z M63,85.917c1.064-0.294,2.025-1.043,2.883-2.05l0.934,0.636
				c0.172,0.117,0.368,0.173,0.562,0.173c0.319,0,0.634-0.153,0.827-0.437c0.312-0.457,0.193-1.079-0.264-1.39l-0.885-0.603
				c0.683-1.094,1.281-2.323,1.793-3.549l1.225,0.36c0.095,0.028,0.189,0.041,0.282,0.041c0.433,0,0.831-0.283,0.959-0.719
				c0.156-0.53-0.147-1.085-0.677-1.241l-1.064-0.313c0.504-1.394,0.932-2.82,1.278-4.187l1.014,0.221
				c0.071,0.016,0.144,0.023,0.214,0.023c0.46,0,0.874-0.319,0.976-0.787c0.118-0.54-0.224-1.072-0.764-1.19l-0.991-0.216
				c0.169-0.828,0.302-1.608,0.397-2.318c0.934,0.12,1.858,0.272,2.762,0.481c0.106,0.434,0.227,0.864,0.377,1.286l1.15,3.221
				c0.025,0.087,0.049,0.175,0.077,0.259c0.575,1.758,1.679,3.251,2.123,3.808v3.36c-0.298,0.634-0.977,2.349-0.496,4.031
				c0.606,2.116,3.261,4.25,4.198,4.25c0.098,0,0.223-0.038,0.354-0.083l0,0c-0.019,0.322-0.031,0.646-0.031,0.972v27.4H63V85.917z
				 M83.979,82.016c0.21,0.576,0.416,1.417,0.23,2.076c-0.343,1.217-1.691,2.421-2.325,2.86c-0.63-0.423-1.948-1.557-2.271-2.687
				c-0.213-0.744,0.004-1.647,0.225-2.25H83.979z M80.186,80.016v-2.001h3.448v2.001H80.186z M84.139,76.015h-4.517
				c-0.425-0.56-1.236-1.731-1.657-3.019c-0.244-0.745-0.368-1.633-0.435-2.456c0.37,0.209,0.755,0.395,1.168,0.534l6.825,2.299
				c-0.069,0.244-0.143,0.489-0.237,0.711C85.002,74.758,84.49,75.53,84.139,76.015z M79.336,69.179
				c-1.958-0.66-3.274-2.491-3.274-4.557v-0.557c0.452-0.336,0.889-0.692,1.315-1.06l5.286,1.781
				c1.958,0.659,3.274,2.491,3.274,4.557v2.06L79.336,69.179z M85.939,48.531c-0.195,0-0.382-0.054-0.564-0.131
				c0.15-1.074,0.234-2.17,0.234-3.285v-4.056c0.108-0.025,0.218-0.042,0.33-0.042c1.284,0,2.369,1.72,2.369,3.757
				S87.223,48.531,85.939,48.531z M87.984,32.629v7.04c-0.607-0.416-1.302-0.652-2.046-0.652c-0.151,0-0.296,0.028-0.442,0.048
				c-0.498-2.701-2.629-4.874-5.433-5.373c-3.691-0.657-8.621-1.899-11.147-4.085c-3.948-3.415-5.631-7.674-5.916-8.457v-5.508
				c1.035,1.691,2.526,3.677,4.607,5.478c1.416,1.224,3.545,2.288,6.328,3.163c0.1,0.031,0.201,0.046,0.3,0.046
				c0.426,0,0.82-0.273,0.954-0.701c0.165-0.527-0.128-1.088-0.654-1.254c-2.521-0.792-4.412-1.723-5.619-2.767
				c-3.948-3.415-5.631-7.674-5.916-8.457V6.669C76.866,7.197,87.984,18.636,87.984,32.629z M61,6.669v4.482
				c-0.302,0.828-2.241,5.68-7.235,8.734c-0.471,0.288-0.619,0.904-0.331,1.375c0.289,0.471,0.902,0.62,1.375,0.331
				c2.946-1.802,4.921-4.124,6.191-6.076v5.636c-0.302,0.828-2.241,5.68-7.235,8.734c-3.107,1.9-7.197,3.05-10.082,3.68
				c-2.767,0.604-4.784,2.795-5.202,5.497c-0.139-0.017-0.276-0.045-0.419-0.045c-0.745,0-1.439,0.236-2.046,0.652v-7.041
				C36.015,18.636,47.134,7.197,61,6.669z M35.693,44.774c0-2.037,1.084-3.757,2.369-3.757c0.112,0,0.222,0.017,0.33,0.042v4.056
				c0,1.115,0.083,2.211,0.234,3.285c-0.182,0.077-0.369,0.131-0.564,0.131C36.777,48.531,35.693,46.811,35.693,44.774z
				 M37.107,75.347c-0.082-0.162-0.167-0.323-0.236-0.486c0.418,0.994,1.136,2.014,1.495,2.496v2.74
				c-0.877-1.104-1.908-2.096-3.075-2.95C35.871,76.521,36.474,75.918,37.107,75.347z M27.814,96.184
				c0-6.618,2.309-12.703,6.156-17.504c1.553,1.11,2.849,2.486,3.81,4.067c-0.086,0.595-0.093,1.247,0.087,1.888
				c0.271,0.962,0.938,1.917,1.677,2.7c0.162,0.854,0.246,1.73,0.246,2.622v10.877c0,0.552,0.448,1,1,1s1-0.448,1-1V89.956
				c0-0.326-0.011-0.65-0.031-0.972h0c0.13,0.045,0.256,0.083,0.354,0.083c0.937,0,3.592-2.134,4.198-4.25
				c0.481-1.681-0.198-3.396-0.496-4.031v-3.36c0.444-0.558,1.548-2.051,2.123-3.808c0.028-0.084,0.051-0.172,0.077-0.259
				l1.15-3.221c0.151-0.422,0.271-0.852,0.377-1.286c0,0,0,0,0,0c0.902-0.209,1.826-0.36,2.758-0.481
				c0.095,0.71,0.227,1.491,0.397,2.319l-0.988,0.215c-0.54,0.118-0.882,0.65-0.764,1.19c0.102,0.468,0.516,0.787,0.976,0.787
				c0.071,0,0.142-0.007,0.214-0.023l1.01-0.22c0.346,1.367,0.774,2.793,1.278,4.187l-1.061,0.312
				c-0.53,0.156-0.833,0.711-0.678,1.241c0.128,0.436,0.527,0.719,0.959,0.719c0.093,0,0.188-0.013,0.282-0.041l1.222-0.359
				c0.513,1.227,1.111,2.456,1.794,3.55l-0.882,0.601c-0.457,0.311-0.575,0.933-0.264,1.389c0.193,0.285,0.508,0.438,0.828,0.438
				c0.194,0,0.39-0.056,0.562-0.173l0.932-0.634c0.859,1.007,1.82,1.756,2.884,2.049v0.821c0,0.003,0.002,0.006,0.002,0.01v30.609
				H41.79V114c0-0.552-0.448-1-1-1s-1,0.448-1,1v3.356H27.814V96.184z M37.902,82.122c-0.001,0.004-0.002,0.009-0.003,0.013
				C37.899,82.131,37.9,82.126,37.902,82.122z M96.187,117.357H84.211v-27.4c0-0.892,0.085-1.769,0.246-2.623
				c0.739-0.783,1.406-1.737,1.677-2.699c0.18-0.64,0.173-1.293,0.087-1.888c0.961-1.582,2.256-2.958,3.81-4.067
				c3.847,4.802,6.156,10.886,6.156,17.504V117.357z"/>
			<path class="st0" d="M40.79,111c0.552,0,1-0.448,1-1v-5.458c0-0.552-0.448-1-1-1s-1,0.448-1,1V110
				C39.79,110.552,40.237,111,40.79,111z"/>
			<path class="st0" d="M76.617,25.019c0.979,0.235,2.021,0.451,3.095,0.642c0.06,0.011,0.119,0.016,0.177,0.016
				c0.476,0,0.897-0.34,0.983-0.825c0.097-0.543-0.266-1.063-0.809-1.16c-1.036-0.185-2.038-0.393-2.979-0.619
				c-0.538-0.129-1.077,0.202-1.206,0.739S76.08,24.89,76.617,25.019z"/>
			<path class="st0" d="M43.895,25.542c0.071,0,0.143-0.007,0.214-0.023c3.04-0.664,5.731-1.513,8.001-2.523
				c0.504-0.225,0.731-0.816,0.507-1.32c-0.225-0.505-0.818-0.731-1.32-0.507c-2.146,0.956-4.708,1.762-7.614,2.396
				c-0.54,0.118-0.881,0.651-0.764,1.19C43.021,25.223,43.435,25.542,43.895,25.542z"/>
			<path class="st0" d="M52.026,39.689c-1.249,0-2.261,1.012-2.261,2.261c0,1.249,1.012,2.261,2.261,2.261
				c1.249,0,2.261-1.012,2.261-2.261C54.287,40.701,53.274,39.689,52.026,39.689z"/>
			<path class="st0" d="M71.974,39.689c-1.249,0-2.261,1.012-2.261,2.261c0,1.249,1.012,2.261,2.261,2.261
				c1.249,0,2.261-1.012,2.261-2.261C74.235,40.701,73.223,39.689,71.974,39.689z"/>
			<path class="st0" d="M58.429,49.442c0,1.969,1.602,3.571,3.571,3.571s3.571-1.602,3.571-3.571v-1.507c0-0.552-0.448-1-1-1
				s-1,0.448-1,1v1.507c0,0.866-0.705,1.571-1.571,1.571s-1.571-0.705-1.571-1.571v-1.507c0-0.552-0.448-1-1-1s-1,0.448-1,1V49.442z
				"/>
			<path class="st0" d="M70.254,37.571l4.427,0.771c0.059,0.01,0.116,0.015,0.173,0.015c0.478,0,0.899-0.342,0.984-0.828
				c0.095-0.544-0.27-1.062-0.813-1.157l-4.427-0.771c-0.552-0.094-1.062,0.27-1.157,0.813
				C69.346,36.959,69.71,37.476,70.254,37.571z"/>
			<path class="st0" d="M53.402,35.601l-4.427,0.771c-0.544,0.095-0.908,0.613-0.813,1.157c0.085,0.486,0.507,0.828,0.984,0.828
				c0.057,0,0.115-0.005,0.173-0.015l4.427-0.771c0.544-0.095,0.908-0.613,0.813-1.157C54.464,35.871,53.954,35.512,53.402,35.601z"
				/>
		</g>
	</g>
</g>
</svg>
